<?xml version="1.0" standalone="no"?> 
<!DOCTYPE svg PUBLIC "-//W3C//DTD SVG 1.1//EN" "http://www.w3.org/Graphics/SVG/1.1/DTD/svg11.dtd" >
<svg xmlns="http://www.w3.org/2000/svg">
<defs>
  <font id="amazing-neo-brands" horiz-adv-x="660">
    <font-face font-family="amazing-neo-brands"
      units-per-em="512" ascent="384"
      descent="128" />
    <missing-glyph horiz-adv-x="0" />
    <glyph glyph-name="500px"
      unicode="&#xF101;"
      horiz-adv-x="398.7" d=" M69.6 48C69.7 47.7 72.4 40.4 73.9 36.7C82.3 16.8 94.4 -1.2 109.8 -16.6C125.2 -32 143.1 -44.1 163.1 -52.5C183.8 -61.2 205.7 -65.7 228.3 -65.7S272.9 -61.3 293.5 -52.5C313.5 -44.1 331.3999999999999 -32 346.8 -16.6C362.2 -1.2 374.3 16.7 382.7 36.7C391.3999999999999 57.4 395.8999999999999 79.3 395.8999999999999 101.9S391.5 146.5 382.7 167.1C374.3 187.1 362.2 205 346.8 220.4C331.4 235.8 313.5 247.9 293.5 256.3C272.8 265 250.9 269.5 228.3 269.5C205.4 269.5 182.5 264.9 162.2 256.3C145.9 249.4 118.3 231.7 102.2 215L102.1 214.9V352.9H333.8C342.2 353 342.2 364.8 342.2 368.6C342.2 372.5 342.2 384.2 333.7 384.3L83.3 384.4C76.5 384.4 72.3 378.7 72.3 373.5V179.4C72.3 173.1 80.1 168.6 87.4 167.1C101.6 164.1 104.8 168.6 108.3 173.4L108.8 174C114.1 181.9 130.6 198.5 130.8 198.7C156.6 224.5 191.1 238.7 228 238.7C264.7 238.7 299.1 224.5 324.9 198.7C350.8 172.8 365.1 138.5 365.1 102.1C365.1 65.6 350.9 31.1999999999999 325.1 5.5C299.7 -19.9 264.1 -34.5 227.6 -34.5C202.9 -34.5 179 -27.9 158.5 -15.4L158.6 102.6C158.6 118.3 165.4 135.5 176.9 148.4C190 163.2000000000001 208 171.3000000000001 227.7 171.3000000000001C246.7 171.3000000000001 264.5 164.1000000000001 277.8 151C290.9000000000001 138 298.2 120.6 298.2 102.1C298.2 62.7000000000001 267.2 31.8 227.6 31.8C220 31.8 206.1 35.2 205.5 35.3C197.5 37.7 194.1 26.6 193 22.9C188.7 8.8 195.2 6.0000000000001 196.5 5.6C209.2 1.6 217.6 0.9 228.6 0.9C284.5 0.9 330 46.4 330 102.3000000000001C330 157.8000000000001 284.5 202.9000000000001 228.7 202.9000000000001C201.3 202.9000000000001 175.6 192.4000000000001 156.3 173.5000000000001C137.9 155.4000000000001 127.4 131.3000000000001 127.4 107.3000000000001V106.7000000000001C127.3 103.7000000000001 127.3 32.9 127.2 9.7L127.1 9.8000000000001C116.6 21.4000000000001 106.2 39.2 99.3 57.4000000000001C96.6 64.5000000000001 90.5 63.3000000000001 82.2 60.7000000000001C78.2 59.5000000000001 67.2 56.1000000000001 69.6 48.0000000000001zM188.7 75.7C188.7 72.3 191.8 69.3 193.7 67.6L194.3 66.9999999999999C197.5 63.8999999999999 200.5 62.3 203.3 62.3C205.6 62.3 207 63.4 207.5 63.9C208.9 65.2 224.7 81.3 226.3 82.8L244 65.1999999999999C245.6 63.3999999999999 247.4 62.3999999999999 249.5 62.3999999999999C252.3 62.3999999999999 255.4 64.0999999999999 258.6 67.3999999999999C266.2 75.1999999999999 262.4 79.3999999999999 260.6 81.3999999999999L242.7 99.2999999999999L261.4 118.0999999999999C265.5 122.4999999999999 261.9 127.1999999999999 258.3 130.7999999999999C253.1 135.9999999999999 248 137.3999999999999 244.8 134.3999999999999L226.2 115.7999999999999L207.4 134.5999999999999C206.4 135.5999999999999 205.0999999999999 136.0999999999999 203.8 136.0999999999999C201.3 136.0999999999999 198.3 134.3999999999999 195 131.0999999999999C189.1999999999999 125.2999999999999 188 121.2999999999999 191 118.0999999999999L209.8 99.3999999999999L191 80.5999999999999C189.5 79.0999999999999 188.6999999999999 77.3999999999999 188.6999999999999 75.6999999999999zM229.6 329.5C199.6 329.5 167.6 323.4 144.2 313.3C141.7 312.3 140.2 310.3 139.9 307.5C139.6 304.8 140.3 301.3 142.1 296.7C143.6 293 147.4 283.1 154.9 286C178.9 295.2 205.5 300.2 229.6 300.2C257 300.2 283.6 294.8 308.6 284.3C328.5 275.9 347.2 263.7 367.6 246.1C369.1 244.8 370.7 244.2 372.3 244.2C376.3 244.2 380.1 248.1 383.4 251.8C388.8 257.9 392.6 263 387.2 268.1C367.7 286.5 346.4 300.3 320 311.5C291.4 323.4 261 329.5 229.6 329.5zM391.4 -41.2C387.8 -37.6 384.7 -35.5 382 -34.7C379.3 -33.9 376.8 -34.5 374.9 -36.4L373.1 -38.2C354.5 -56.8 332.8 -71.4 308.7 -81.6C283.7 -92.2 257.2 -97.4999999999999 229.8999999999999 -97.4999999999999C202.4999999999999 -97.4999999999999 175.9999999999999 -92.1 151.0999999999999 -81.6C126.9999999999999 -71.4 105.2999999999999 -56.7999999999999 86.6999999999999 -38.2C67.2999999999999 -18.8 52.6999999999999 2.9 43.2999999999999 26.2C34.0999999999999 49.0000000000001 31.0999999999999 66.1 30.0999999999999 71.7000000000001C29.9999999999999 72.2000000000001 29.8999999999999 72.6 29.8999999999999 72.9C28.5999999999999 79.5000000000001 22.4999999999999 80.0000000000001 13.7999999999999 78.6C10.1999999999999 78 -0.9000000000001 76.3 0.0999999999999 68.4V68.2000000000001C3 49.7 8.2 31.6 15.5 14.4C27.2 -13.3 44 -38.2 65.4 -59.6S111.7 -97.7 139.4 -109.5C168.1 -121.6 198.6 -127.7999999999999 230 -127.7999999999999C261.4 -127.7999999999999 291.9 -121.6 320.6 -109.4999999999999C348.3 -97.7999999999999 373.2000000000001 -80.9999999999999 394.6 -59.6L396.5 -57.7C398.7 -55 400.7 -50.5 391.4 -41.2z" />
    <glyph glyph-name="acrobat-reader"
      unicode="&#xF102;"
      horiz-adv-x="512" d=" M503.492 56.191C488.346 72.405 457.328 81.727 413.3810000000001 81.727C389.9140000000001 81.727 362.7150000000001 79.38 333.168 73.833C316.484 90.26 299.8450000000001 109.459 283.952 131.859C272.645 147.646 262.768 164.286 253.659 180.713C271.003 234.9 279.387 279.06 279.387 310.846C279.387 346.515 266.523 383.721 229.467 383.721C218.096 383.721 206.726 376.787 200.667 366.654C183.963 336.617 191.494 270.803 220.23 205.8C209.499 173.374 198.15 142.376 183.963 107.56C171.632 78.206 157.424 47.9549999999999 142.939 20.179C59.653 -13.611 5.765 -53.078 0.709 -84.012C-1.51 -95.681 2.288 -106.411 10.458 -114.945C13.295 -117.292 24.026 -126.572 42.032 -126.572C97.285 -126.572 155.525 -35.265 185.115 19.775C207.835 27.455 230.555 34.43 253.2320000000001 41.428C278.149 48.319 303.151 53.866 325.8710000000001 57.748C384.2190000000001 4.329 435.6520000000001 -4.119 461.51 -4.119C493.338 -4.119 504.688 9.043 508.506 19.817C514.481 33.684 510.0000000000001 49.0439999999999 503.131 56.9379999999999L503.557 56.0839999999999L503.492 56.191zM473.945 33.706C471.726 22.1009999999999 460.336 14.378 444.379 14.378C439.899 14.378 436.0590000000001 15.167 431.514 15.914C402.5 22.847 375.344 37.589 348.25 60.842C374.916 65.407 397.529 66.175 411.824 66.175C427.6090000000001 66.175 441.2630000000001 65.493 450.437 63.104C460.89 60.842 477.529 53.824 473.796 33.664H474.222L473.945 33.706zM313.455 70.122C293.829 66.069 272.624 61.29 250.651 55.338C233.243 50.581 215.109 45.2259999999999 196.891 38.9109999999999C206.768 58.153 215.11 76.757 222.662 94.442C231.793 116.202 239.302 138.602 246.875 159.422C254.342 146.409 262.662 133.182 270.982 121.449C284.635 102.888 298.929 85.1809999999999 313.221 69.822V70.249L313.455 70.122zM214.255 357.802C217.348 363.989 223.428 367.104 228.719 367.104C244.612 367.104 247.641 348.586 247.641 333.824C247.641 308.907 240.089 271.061 227.161 227.862C204.505 288.022 202.948 338.368 214.297 357.782L214.255 357.802zM131.013 -2.667C92.4 -67.585 55.323 -107.904 32.602 -107.904C28.122 -107.904 24.346 -106.304 21.295 -104.001C16.73 -99.393 14.468 -93.932 16.004 -87.787C20.548 -64.534 63.705 -32.043 131.033 -2.667H131.013z" />
    <glyph glyph-name="adobe"
      unicode="&#xF103;"
      horiz-adv-x="512" d=" M322.134 341.333H512V-85.333L322.134 341.333zM189.867 341.333H0V-85.333L189.867 341.333zM256 183.466L375.467 -85.333H294.4L260.267 -0.001H172.8L256 183.466z" />
    <glyph glyph-name="airbnb"
      unicode="&#xF104;"
      horiz-adv-x="448" d=" M224 10.9C198.8 42.6 183.9 70.3 179 94.1C156.4 182.1 291.6 182.1 269.1 94.1C263.6 69.8 248.8 42.1 224 10.9zM362.1 -62.4C320 -80.7 278.4000000000001 -51.5000000000001 242.8 -11.9C346.7000000000001 118.1999999999999 288.9000000000001 188.1 223.9 188.1C169 188.1 138.7 141.6 150.6 87.6C157.5 58.4 175.8 25.2 205 -11.9C172.5 -47.9 144.4 -64.6 119.8 -66.8C69.8 -74.2 30.7 -25.7 48.5 24.3C63.6 63.4999999999999 160.2000000000001 255.5 164.4 265.9C180.2 296 190 323.3 223.8 323.3C256.1 323.3 267.2 297.4 284.2 263.4C320.2 192.8 373.6 85.9 399 24.3C412.3 -8.8 397.8 -47 362.1 -62.4zM409.1 73.8C280.3 348.1 273.1 352 224 352C178.5 352 159.1 320.3 139.3 279.2C33.2 66.9 22.9 36.8 22 34.2C-3.2 -35.1 48.7 -96 111.6 -96C133.3 -96 172.2 -89.9 224 -33.6C282.7 -97.4 325.3 -96 336.4 -96C399.3 -96 451.3 -35.1 426 34.2C426 38.1 409.2 73.1 409.1 73.8z" />
    <glyph glyph-name="alarb"
      unicode="&#xF105;"
      horiz-adv-x="512" d=" M503.6 383.8C447.7000000000001 387.9 348.5 314.7 256 201.8C163.7 314.7 64.3 387.7 8.4 383.8L0 383.2L6.7 377.8C88.2 312.5 160.6 238.4 222 158C204.8 134.9 188.2 110.6 172.3 85.7L216.9 50.2C229.2 70.9 242.3 91.3 256 111.3C269.7 91.3 282.8 70.7 295.1 50.2L339.7000000000001 85.7C323.7000000000001 110.6 307.2000000000001 134.9 290.0000000000001 158C351.4 238.6 423.8 312.5 505.3 377.8L512 383.2L503.6 383.8zM431.6 -60.7C436.7000000000001 -52.4 478.2 -0.3 456.4 42.6C434.3 86.2000000000001 401.8 83.7000000000001 376 74.7000000000001C345 63.9 330.7 41.0000000000001 311 35.7C281.9 27.6 279.7 48.5000000000001 279.7 54.3000000000001C279.5 47.8000000000001 279.9 21.1000000000001 292.4 16.6000000000001C306.9 11.4000000000001 327.2 13.0000000000001 327.2 13.0000000000001C330.3 10.1000000000001 332.1 3.8000000000001 333.3 -1.3999999999999C333.9000000000001 -4.0999999999999 335.8 -6.0999999999999 338 -6.7999999999999C342.9 -8.0999999999999 350.9 -16.8999999999999 352.1 -24.6999999999999C352.9000000000001 -30.2999999999999 359.1 -33.8999999999999 364.2000000000001 -34.7999999999999C368.1 -35.4999999999999 371.2000000000001 -38.5999999999999 372.0000000000001 -42.8999999999999C373.6000000000001 -52.2999999999999 376.1000000000001 -68.8999999999999 386.3000000000001 -65.5999999999999C394.5000000000001 -59.7999999999999 398.2000000000001 -51.1999999999999 397.3000000000001 -39.5999999999999C396.5000000000001 -27.6999999999999 391.2000000000001 -20.6999999999999 381.3000000000001 -18.4999999999999C379.7000000000001 -2.5999999999999 364.7000000000001 3.3000000000001 360.4000000000001 5.5000000000001C359.8000000000001 14.5000000000001 355.5000000000001 25.0000000000001 348.1000000000001 29.1000000000001C379.2000000000001 60.8000000000001 413.8000000000001 49.3000000000001 424.6000000000001 33.2000000000002C439.3000000000001 11.2000000000002 435.9000000000001 -13.8999999999999 427.1000000000001 -34.5999999999998C423.2000000000001 -44.2999999999998 389.8000000000001 -89.3999999999999 386.8000000000001 -92.9999999999998C391.5000000000001 -95.1999999999998 396.4000000000001 -98.3999999999998 408.3000000000001 -86.2999999999998C409.9000000000001 -89.6999999999998 412.6000000000001 -123.5999999999998 431.0000000000001 -127.9999999999998C435.7000000000001 -122.5999999999998 436.9000000000001 -115.1999999999998 438.4000000000001 -106.4999999999998C442.8 -79.2999999999998 415.0000000000001 -83.7999999999998 431.6 -60.6999999999998zM200.1 35.9C180.5 41.3 166.1 64.4 135.2 74.9C109.4 83.9 76.9 86.4 54.8 42.8C32.9 -1e-13 74.5 -52.3000000000001 79.6 -60.4C96 -83.8 68.3 -79.3 72.6 -106.2C74 -115 75.2 -122.4 80 -127.7C98.6 -123.2 101.1 -89.3000000000001 102.7 -85.9C114.4 -98.0000000000001 119.3 -94.9 124 -92.6C120.9 -89.2 87.6 -43.9 83.7 -34.2C74.7 -13.8000000000001 71.4 11.6 86.2 33.6C97.3 49.8 131.6 61.2 162.5 29.6C155.1 25.6 150.8 14.9999999999999 150.2 5.9999999999999C145.9 3.8 131 -2.1000000000001 129.5 -18.0000000000001C119.7 -20.2 114.4 -27.2 113.5 -39.1000000000001C112.7 -50.8000000000001 116.4 -59.5000000000001 124.5 -65.1000000000001C134.7 -68.7000000000001 137 -52.1000000000001 138.6 -42.4000000000001C139.2 -38.1000000000001 142.5 -35.0000000000001 146.4 -34.3000000000001C151.7 -33.4000000000001 157.7 -29.6000000000001 158.5 -24.2C159.7 -16.1 167.5 -7.6 172.4 -6.2C174.9 -5.5000000000001 176.5 -3.5000000000001 177.1 -0.8000000000001C178.1 4.3999999999999 180.2 10.6999999999999 183.2 13.5999999999999C183.2 13.5999999999999 203.5 11.9999999999999 218 17.1999999999999C229.4 21.1999999999999 230.8 44.8 231 53.3C230.7 45.6999999999999 226.7 28.6999999999999 200.1 35.9z" />
    <glyph glyph-name="alipay"
      unicode="&#xF106;"
      horiz-adv-x="448" d=" M377.7 352H70.3C31.4 352 0 320.6 0 281.7V-25.8C0 -64.6 31.4 -96.1 70.3 -96.1H377.8C416.3 -96.1 447.6 -65 448.1 -26.5C402.1 -0.9 337.5 33.8 276.5 61.9C244.4000000000001 17.9 192.4 -19.1 127.9 -19.1C57.3 -19.1 34.2 26.2 30.9 57.3C26.9 96.3 45.8 138.8 130.4 138.8C165.8000000000001 138.8 209.7000000000001 128.5 257.5 113.8C274 143.9 284 174.1 284 174.1H105.6V191H197.7V222.2H88.3V241.2H197.7V291.7H248.6V241.3H358V222.3H248.6V191H337.4S322.2 144.4 299 100.1C347.9 83.4 399 64.1 447.6 47.4V281.7C447.8 320.4 416.4000000000001 352 377.7000000000001 352zM47.3 61C48.3 40.8 57.6 7.3 117.2 7.3C169.3 7.3 209.8 47 235.1 80.2000000000001C190.5 98.9 150.6 111.6 125.7 111.6C58.2 111.6 46.3 78.6 47.3 61z" />
    <glyph glyph-name="alnoor"
      unicode="&#xF107;"
      horiz-adv-x="512" d=" M511.9 133.2C511.9 60 486.6 -26.3 395.6 -83.4C370.2 -98.1 330 -118.2 318 -118.2C309.2 -120.9 302.3 -122.6 301.9 -118.2C301.9 -114.4 303 -112.3 307.3 -110.2C405.3 -65.9 442.7 -27.8 471.4 30.1C495 78.9 504.7 163 476.7 224C472.8 230.7 465.2 251.2 461.5 257C461.2 257.6 459.3 174.4 459.6 155.7C458.1 174.8 449.6 261.5 449.6 261.5S450.8 283.8 449.9000000000001 293.9C488.9 255 511.9 189.2 511.9 133.2zM459.9 152C459.8 152.1 459.7 153.5 459.7 155.8C459.8 153.3 459.9 151.9 459.9 152zM409.3 43.1C397.7 34.5 383.3 34 376.5 51.7C368.3 43.5000000000001 361.3999999999999 34.9 351.8999999999999 28.2C349.7999999999999 26.7 347.5999999999999 25.2 345.2 23.6C344.5 23.1 345.0999999999999 -63.5 312.5999999999999 -96.7999999999999C259.4999999999999 -151.1999999999999 203.7999999999999 -118.4 197.9999999999999 -115.6999999999999C203.8999999999999 -117.0999999999999 257.7999999999999 -123.5999999999999 288.4999999999999 -94.0999999999999C319.7999999999999 -63.8999999999999 335.4999999999999 -0.5999999999999 336.6999999999999 15.6000000000001C336.8999999999999 18.4000000000001 335.0999999999999 17.7000000000001 334.8999999999999 17.6000000000001C328.2999999999999 14.3000000000001 321.4999999999999 12.1000000000001 315.3999999999999 13.1000000000001C297.9999999999999 15.7000000000001 304.0999999999999 57.0000000000001 312.5999999999999 79.8000000000001C314.5999999999999 85.2000000000001 319.6999999999999 85.3000000000001 323.4999999999999 84.4000000000001C337.0999999999999 80.6000000000001 342.2999999999999 57.5000000000001 344.7999999999999 58.4000000000001C347.2999999999999 59.3000000000001 374.7999999999999 92.9000000000001 384.8999999999999 109.2000000000001C383.8999999999999 96.2000000000001 382.5999999999999 77.6000000000001 383.1999999999999 63.7000000000001C403.2999999999999 68.4000000000001 423.9999999999999 91.8000000000001 435.6999999999999 133.2000000000001C441.8999999999999 172.5000000000001 429.9999999999999 219.7000000000001 414.2999999999999 250.9000000000001C414.2999999999999 251.0000000000001 412.9999999999999 254.6000000000001 411.5999999999999 256.3000000000001C409.3999999999999 258.9000000000001 408.7 186.6000000000001 406.2 189.4000000000001C404.5 191.4000000000001 400.8999999999999 266.8000000000001 400.8 267.0000000000001C401.4 273.2000000000001 399.8 294.7000000000001 400.8 312.5000000000001C433.6 257.8000000000001 455.9999999999999 193.4000000000001 443.3 111.7000000000001C437.1 87.2000000000001 429.5 59.9 409.3 43.1zM198.1 -115.7C197.7 -115.6 197.5 -115.5 197.6 -115.5C197.6 -115.5 197.8 -115.6 198.1 -115.7zM352.8 189.4C352.2 198.5 352.8 222.4 360.8 224.2000000000001C382 221.7000000000001 376 193.1000000000001 369.2 178.8000000000001C362.2 178.6000000000001 353.8 185.4 352.8 189.4zM327.9 340.5L338.8 367.1L346.2 364.1L335.3 337.5L327.9 340.5zM324.5 346.8C324.2 345.9 324 345.1 324 344.5C324 343.9 324 343.2 324.2 342.2L317 344.4C316.9 345 316.8 345.4 316.8 345.7C316.8 346 316.8 346.4 316.9000000000001 347C315.6 346.3 314.4000000000001 346 313.3 345.9C311.8 345.8 310.1 346 308.3 346.5C305.9000000000001 347.2 304.3 348.3 303.4000000000001 349.8C302.5000000000001 351.3 302.3 352.8 302.8 354.4C303.3 355.9 304.1 357 305.3 357.7C306.5 358.4 308.3 358.6 310.9000000000001 358.4C313.9000000000001 358.1 315.9000000000001 357.9 316.8 357.9C317.7 357.9 318.7 357.9 319.8 358C320.1 358.9 320.1 359.7 319.8 360.1C319.5 360.6 318.9000000000001 361 317.9000000000001 361.3C316.7000000000001 361.7 315.7000000000001 361.8 314.9000000000001 361.6C314.3 361.4 313.7000000000001 361 313.2000000000001 360.2L306.1 363.2C306.8 364.4 307.5 365.3 308.2000000000001 365.8C308.9000000000001 366.4 309.9000000000001 366.8 311.0000000000001 367C311.8000000000001 367.2 312.9000000000001 367.2 314.2000000000001 367C315.5000000000001 366.8 316.8000000000001 366.5 318.3000000000001 366.1C320.6000000000001 365.4 322.4000000000001 364.7 323.7000000000001 364C325.0000000000001 363.3 326.0000000000001 362.4 326.7000000000001 361.3C327.2000000000001 360.5 327.4000000000001 359.6 327.5000000000001 358.4C327.6000000000001 357.3 327.4000000000001 356.2 327.2000000000001 355.3L324.5000000000001 346.8zM315.1 354.3C313.4000000000001 354.4 312.3 354.3 311.8 354C311.2 353.7 310.9000000000001 353.3 310.7 352.8C310.5 352.2 310.6 351.6 310.9 351.1C311.2 350.6 311.8 350.2 312.6 350C313.4 349.7 314.3 349.7 315.2 349.9C316.1 350.1 316.7 350.4 317.2 350.9S318.1 352.1 318.4 353.1L318.8 354.3C317.5 354.2 316.3 354.2 315.1 354.3zM297.5 350.1L289.6 351.5L291.6 362.8C291.8 364.1 291.7000000000001 365 291.4000000000001 365.7C291.0000000000001 366.3 290.4000000000001 366.7 289.5000000000001 366.9C288.5000000000001 367.1 287.7000000000001 366.8 287.0000000000001 366.2S285.8000000000001 364.3 285.4000000000001 362.5L283.7000000000001 352.7L275.8000000000001 354.1L279.4000000000001 374.6L286.7000000000001 373.3L286.1000000000001 370C287.4000000000001 371.2 288.7000000000001 372 289.9000000000001 372.3C291.1000000000001 372.7 292.5000000000001 372.7 294.1000000000001 372.5C296.3000000000001 372.1 297.9000000000001 371.2 298.9000000000001 369.7C299.9000000000001 368.2 300.2000000000001 366.1 299.7000000000001 363.4L297.5000000000001 350.1zM280.5 -16.6S275.3 -10.5 269.8 -13.9C256.2 -22.4 241.7 -84.1 216.3 -102.2C185.3 -124.2 144 -102.2 144 -102.2S146.8 -96.9 152 -96.8000000000001C166.6 -96.8000000000001 189.3 -105.1000000000001 210.9 -86.1000000000001C239.1 -61.2000000000001 259.1 -0.5000000000001 259.1 -0.5000000000001S266 15.9999999999999 275.2000000000001 12.8999999999999C284.3000000000001 9.6999999999999 280.5000000000001 -16.6000000000001 280.5000000000001 -16.6000000000001zM260.1 354.5C256.8 354.7 254.1 355.7 252.1 357.5C249.7 359.7 248.6 362.6 248.7 366C248.9 369.2 250.1 371.7 252.3 373.7C254.5 375.6 257.5 376.5 261.1 376.3C265.3 376.1 268.3 374.7 270.3 372.2C271.9000000000001 370.2 272.6 367.7 272.5 364.9C272.3 361.7 271.1 359.1 268.9 357.2C266.8 355.2 263.8 354.3 260.1 354.5zM263.7000000000001 369.3C263.0000000000001 370.2 262.1 370.7 261.0000000000001 370.8C259.8000000000001 370.9 258.9000000000001 370.5 258.1000000000001 369.6C257.3000000000001 368.7 256.8000000000001 367.4 256.7000000000001 365.6C256.6000000000001 363.7 256.9000000000001 362.4 257.6000000000001 361.4C258.3000000000001 360.5 259.2000000000001 360 260.4000000000001 359.9C261.5000000000001 359.8 262.5000000000001 360.2 263.3000000000001 361.1C264.1000000000001 361.9 264.5000000000001 363.3 264.6000000000001 365.2C264.7000000000001 367 264.4000000000001 368.4 263.7000000000001 369.3zM259.1 229.6C261.7000000000001 217.5 272.7000000000001 233.1 269.8 213.5C269 208 271.3 200.4 269.8 194.8000000000001C265.5 188.3000000000001 255.9 209.3000000000001 251.1 202.8000000000001C246.6 202.8000000000001 237.0000000000001 184.1000000000001 235.0000000000001 184.1000000000001C230.8000000000001 184.1000000000001 236.5000000000001 202.8000000000001 227.0000000000001 202.8000000000001C218 202.8000000000001 219.8000000000001 188.9 216.3000000000001 189.4C213.8000000000001 189.8000000000001 206.5 204.1 200.2000000000001 205.5C200.2000000000001 205.5 195.2000000000001 195.4 189.5000000000001 194.8000000000001C187.3000000000001 194.6000000000001 183.5000000000001 207.3000000000001 181.5000000000001 208.2000000000001C177.7000000000001 209.8000000000001 173.5000000000001 200.2000000000001 173.5000000000001 200.2000000000001S174.1000000000001 186.8000000000001 170.8000000000001 184.1000000000001C170.1000000000001 183.5000000000001 162.8000000000001 192.1000000000001 162.8000000000001 192.1000000000001C160.2000000000001 190.2000000000001 155.5000000000001 198.9000000000001 152.1000000000001 197.5000000000001C148.9000000000001 196.1000000000001 149.7000000000001 179.1000000000001 146.7000000000001 184.1000000000001C144.0000000000001 190.0000000000001 135.8000000000001 205.9000000000001 136.0000000000001 210.9000000000001C136.2000000000001 215.8000000000001 141.7000000000001 216.7000000000001 149.4000000000001 218.9000000000001C152.2000000000001 230.8000000000001 156.3000000000001 241.9000000000001 162.8000000000001 240.3000000000001L170.8000000000001 232.3000000000001H176.2000000000001C180.0000000000001 250.1000000000001 186.0000000000001 261.0000000000001 208.3000000000001 267.1000000000001C209.2000000000001 260.0000000000001 209.1000000000001 259.1000000000001 210.3000000000001 254.4000000000001L213.0000000000001 248.9000000000001S216.9000000000001 247.9000000000001 218.7000000000001 249.4000000000001H218.8000000000001V249.5000000000001C227.0000000000001 272.9000000000001 222.5000000000001 295.6 248.4000000000001 315.2000000000001C260.6000000000001 299.6000000000001 262.3000000000001 280.6 264.5000000000001 261.7000000000001C263.4000000000001 251.9000000000001 262.4000000000001 238.8000000000001 259.1000000000001 229.6000000000001zM235.3 375.8L243.3 376.1L244.1 355.3L236.1 355L235.3 375.8zM235 383.7L243 384L243.2 378.6L235.2 378.3L235 383.7zM221.4 354C220.4 354.4 219.6 355.1 219.1 356.1C218.5 357.1 218.1 358.7 217.9 361L217.1 368.3L214.2 368L213.5 373.8L216.4 374.1L216 377.9L223.5 382.9L224.4 375L228.8 375.5L229.5 369.7L225.1 369.2L225.9 361.9C226 361 226.1 360.4 226.4 360.2C226.7 359.8 227.2 359.6 227.8 359.7C228.4 359.8 229.2 360 230.2 360.5L231.4 355.1C229.5 354.5 227.7 354 226 353.8C223.9 353.5 222.4 353.6 221.4 354zM205.2 352.3C205.1 352.6 204.9 353 204.7 353.5C203.9 352.3 203 351.4 202.1 350.7C200.8 349.8 199.3 349.2 197.5 348.8C195.1 348.3 193.1 348.4 191.6 349.3C190.1 350.1 189.2 351.4 188.8 353C188.5 354.5 188.6 355.9 189.3 357.1C190 358.3 191.5 359.4 193.8 360.4C196.6 361.6 198.4 362.4 199.2 362.9C200 363.3 200.9 363.8 201.8 364.4C201.6 365.4 201.2 366 200.8 366.3C200.3 366.6 199.6 366.6 198.6 366.4C197.3 366.1 196.4 365.7 195.9 365.2C195.5 364.8 195.2000000000001 364.1 195.1 363.1L187.5 362.3C187.5 363.7 187.7 364.8 188 365.6C188.4 366.5 189 367.3 189.9 368C190.5 368.6 191.4 369.1 192.7000000000001 369.6C193.9 370.1 195.2000000000001 370.5 196.7000000000001 370.8C199.0000000000001 371.3 200.9 371.6 202.4 371.6S205.2000000000001 371.4 206.3000000000001 370.7C207.1000000000001 370.3 207.8000000000001 369.6 208.4 368.6C209 367.6 209.4 366.7 209.6 365.7L211.6 356.7C211.8 355.7 212 355 212.3 354.5C212.5 354 213 353.3 213.5 352.6L206.2 351C205.6 351.7 205.3 352.1 205.2 352.3zM202.9 359.4L202.6 360.6C201.6 360 200.6 359.4 199.5 358.9C198 358.1 197.1 357.5 196.8 357C196.5 356.5 196.3 356 196.5 355.4C196.6 354.8 197 354.3 197.5 354C198 353.7 198.7 353.6 199.5 353.8C200.4 354 201.1 354.4 201.8 355C202.5 355.6 202.9 356.2 203.1 356.9C203.1 357.6 203.1 358.4 202.9 359.4zM174.9 354.8C174.5 356 173.9 356.8 173.3 357.2C172.7 357.6 171.9 357.6 171.1 357.3C170.2 357 169.6 356.4 169.2 355.5C168.9 354.6 169 353.3 169.7 351.5L173 342L165.5 339.4L158.6 359L165.6 361.5L166.7 358.3C167.3 360 168 361.3 168.9 362.2C169.8 363.1 171 363.9 172.5 364.4C174.6 365.1 176.4 365.1 178 364.3C179.6 363.5 180.9 361.8 181.8 359.2L186.2 346.7L178.6 344.1L174.9 354.8zM155.8 334.9L148.6 331.5L139.7 350.3L146.4 353.5L147.9 350.4C147.9 352 148.2 353.3 148.6 354.1C149.1 354.9 149.8 355.6 150.8 356.1C151.9 356.6 153.2 356.8 154.8 356.8L155 350.6C154 350.6 153.2 350.4 152.7 350.2C151.8 349.8 151.2 349 151.1 348C150.9 346.5 151.5 344.3 152.9 341.3L155.8 334.9zM140.7 337.1L127 328.8C127.8 327.8 128.6 327.1 129.4 326.9C130.5 326.5 131.6 326.7 132.7 327.3C133.4 327.7 133.9 328.3 134.3 329C134.5 329.4 134.7 330.1 134.8 330.8L141.9 334.3C142 331.9 141.5 329.9 140.5 328.2C139.5 326.5 137.7 324.9 135 323.2C132.6 321.8 130.6 321 128.8 320.8C127 320.6 125.3 321 123.5 321.9C121.7 322.8 120.3 324.2 119.1 326.2C117.4 329 116.9 331.8 117.7 334.6C118.4 337.4 120.4 339.8 123.5 341.7C126 343.2 128.3 344.1 130.2 344.2C132.1 344.3 133.9 343.9 135.6 342.9C137.3 341.9 138.8 340.2 140.2 337.9L140.7 337.1zM129 338.4C128.1 338.6 127.1 338.4 126.2 337.9C125.1 337.2 124.5 336.3 124.4 335C124.3 334.2 124.5 333.3 125.1 332.1L131.8 336.2C130.9 337.4 130 338.1 129 338.4zM121.7 315.4C120.4 313.9 119.1 312.6 117.7 311.5C116.1 310.3 114.8 309.6 113.7 309.4C112.6 309.2 111.6 309.4 110.6 310S108.4 311.8 107 313.6L102.6 319.4L100.3 317.6L96.8 322.2L99.1 324L96.8 327L100.7 335.1L105.5 328.8L109 331.5L112.5 326.9L109 324.2L113.5 318.3C114 317.6 114.5 317.2 114.8 317.1C115.3 316.9 115.8 317 116.3 317.4S117.3 318.4 118 319.3L121.7 315.4zM106.6 303.7L100.7 298.2L92.9 306.6C92 307.6 91.2 308.1 90.5 308.1C89.8 308.2 89.1 307.9 88.5 307.3C87.8 306.6 87.5 305.8 87.5 304.9C87.6 304 88.2 302.8 89.5 301.4L96.3 294.1L90.5 288.7L76.3 303.9L81.7 309L84 306.5C83.9 308.3 84 309.8 84.4 311C84.8 312.2 85.6 313.4 86.8 314.5C88.4 316 90.1 316.7 91.9 316.6C93.7 316.5 95.6 315.4 97.4 313.4L106.6 303.7zM80.5 277.3L59 296.3L64.9 303L86.5 284L80.5 277.3zM55 268.7C54.4 267.8 54.3 266.9 54.7 266C55.3 264.6 56.9 263.1 59.7 261.2L65.5 257.4L61.1 250.7L43.7 262.1L47.8 268.3L50.7 266.4000000000001C49.9 267.8 49.4 269 49.4 269.9000000000001C49.4 270.8 49.6 271.8 50.3 272.7000000000001C50.9 273.7000000000001 52 274.6 53.3 275.3L56.7 270.1C55.9 269.7 55.3 269.2 55 268.7zM49.7 252.3C52.5 250.8 54.4 248.7 55.2 245.9C56 243.1 55.6 240 53.9 236.7C52.4 233.7 50.4 231.7 47.9 230.7C44.9 229.4 41.8 229.6 38.8 231.1C36 232.6 34.2 234.7 33.3 237.6C32.5 240.4000000000001 32.9 243.5000000000001 34.6 246.7C36.5 250.4 39 252.6 42.2 253.4C44.6 253.9 47.2 253.6 49.7 252.3zM41.9 246C40.8 245.7 40 245.1 39.5 244.2C39 243.2 38.9 242.1 39.4 241C39.8 239.9 40.9 239 42.5 238.1C44.1 237.2 45.5 236.9 46.7 237.2C47.8 237.5 48.7 238.1 49.2 239.1C49.7 240.1 49.8 241.2 49.3 242.2C48.9 243.3 47.8 244.2 46.1 245.1C44.4 246 43 246.3 41.9 246zM37 227.2C40 226.1 42.1 224.2 43.3 221.5C44.5 218.8 44.4 215.7 43.1 212.2C41.9 209.1 40.2 206.8 37.9 205.5C35 203.9 32 203.6 28.8 204.8C25.8 205.9 23.7 207.8 22.6 210.5C21.4 213.2 21.5 216.3 22.7 219.7C24.2 223.6 26.4 226.1 29.4 227.3C31.8 228.3 34.3 228.2 37 227.2zM30 220.1C28.9 219.7 28.2 219 27.8 218C27.4 216.9 27.5 215.9 28.1 214.8C28.7 213.8 29.8 212.9 31.5 212.3C33.2 211.7 34.7 211.5 35.8 211.9C36.9 212.3 37.6 213 38 214.1C38.4 215.2 38.3 216.2 37.8 217.2C37.2 218.2 36 219 34.2 219.7C32.5 220.3 31.1 220.5 30 220.1zM35.6 190.1L17.8 183.1L33.2 179.6L31.3 171.5L3.3 177.9L5.1 186L23 193L7.5 196.5L9.4 204.7L37.4 198.3L35.6 190.1zM17.6 169.2L23.7 168.5L22.3 157L16.2 157.7L17.6 169.2zM22.2 154.2L29.3 154L28.7 131.3L0 132.1L0.2 141L21.9 140.4L22.2 154.2000000000001zM29.5 118.3L24.9 116.4L26 106.4L30.9 105.5000000000001L31.9 96.5000000000001L2.2 104.1000000000001L1.2 113.7000000000001L28.6 127.5000000000001L29.5 118.3000000000001zM19 113.9L9.1 109.6L19.7 107.6L19 113.9zM58.5 -20.4C26.4 17.1 12 77.6 12 77.6L16.2 80.9S31.8 20 63.8 -18.4C105.8 -68.8 156.2 -85.7 156.2 -85.7L152 -89S104.5 -74.1 58.5 -20.4zM69.8 -16.3C37.7 21.2 23.3 81.6 23.3 81.6L27.5 84.9S43.1 24.0000000000001 75.1 -14.4C117.1 -64.7999999999999 167.5 -81.7 167.5 -81.7L163.3 -85C163.2 -85 115.8 -70.1 69.8 -16.3zM78.4 -12C46.3 25.5 31.9 85.9 31.9 85.9L36.1 89.2S51.7 28.3 83.7 -10.1C125.7 -60.5 176.1 -77.4 176.1 -77.4L171.9 -80.7C171.8 -80.6 124.4 -65.8000000000001 78.4 -12.0000000000001zM181.5 103.8C173.9 103.3 167.7 93.6 160.1 93.1C157.9 114.2000000000001 150.1 156 141.4 176C145.3 176 148.6 169.2 154.8 168C162.3 166.6 160.6 179.1 162.8 178.7C166.3 178 168.1 165.2 170.8 165.3C172.9 165.4 175.1 165.6 177.3 165.8C179.9 166.1 179.3 185 176.2 192C175 194.6 190.4 175.7 192.3 175.9C193 176 195.6 177.5 197.7 181.3C200.3 186 202.4 193.1 203.1 192C203.7 191 204.1 184.2 203.1 178.6C202 172.7 199.4 168 200.2 168C202 168 203.9 168 205.8 167.9C207.5 167.8 209.2 167.5 210.9 167.1C212.6 166.7 216.8 169 219.2 173.2C221.9 177.8 222.7 184.5 224.6 183.9C227.4000000000001 183.1 227.0000000000001 162.4 229.6 162C233.4000000000001 161.4 256 187.3 259.4000000000001 186.5C263.4000000000001 185.6 261.0000000000001 165 251.4000000000001 157.1C239.5000000000001 146.9 223.1 117.1 219.3000000000001 108.9C205.1000000000001 62.3 199.1000000000001 -8.9 197.9 -78.4C198.3000000000001 -81.0000000000001 175.7000000000001 -38.7 176.5 -16.9C176.7 -12.3 172.5 -8.1 171.1 -3.5000000000001C165.9 31.9999999999999 173.3 69.0999999999999 181.5 103.8zM54.8 -25C96.8 -75.4 147.2 -92.3 147.2 -92.3L143 -95.6S95.6 -80.8 49.5 -27C17.5 10.4 3 70.9 3 70.9L7.2 74.2S22.8 13.3 54.8 -25z" />
    <glyph glyph-name="amazingneo"
      unicode="&#xF108;"
      horiz-adv-x="512" d=" M476.9 312.6L470.2 297.6C469.9 297 469.4 296.7 468.8 296.7H453.5C452.4 296.7 451.7 298 452.1 299.1L458.8 314.1C459.1 314.7 459.6 315 460.2 315H475.5C476.7 315 477.4 313.7 476.9 312.6zM436.6 339.8L443.3 354.8C443.6 355.4 444.1 355.7 444.7 355.7H460C461.1 355.7 461.8 354.4 461.4 353.3L454.7 338.3C454.4 337.7 453.9 337.4 453.3 337.4H438C436.8 337.5 436.1 338.7 436.6 339.8zM427.3 275.4H442.6C443.7 275.4 444.4 274.1 444 273L437.3 258C437 257.4 436.5 257.1 435.9 257.1H420.6C419.5 257.1 418.8 258.4 419.2 259.5L425.9 274.5C426.2 275.1 426.7 275.4 427.3 275.4zM400.3 314.7L407 329.7C407.3 330.3 407.8 330.6 408.3999999999999 330.6H423.7C424.8 330.6 425.5999999999999 329.3 425.0999999999999 328.2L418.3999999999999 313.2C418.0999999999999 312.6 417.5999999999999 312.3 417 312.3H401.7C400.5999999999999 312.3 399.8 313.6 400.3 314.7zM34.4 0.7L50.5 38.2C50.7 38.8 51.3 39.2 51.9 39.2H67.8C68.9 39.2 69.6 37.9 69.2 36.8L52.6 -0.7C52.3 -1.3 51.8 -1.6 51.2 -1.6H35.8C34.7 -1.6 34 -0.4 34.4 0.7zM21.1 -31.4L27.8 -16.4C28.1 -15.8 28.6 -15.5000000000001 29.2 -15.5000000000001H45C46.1 -15.5000000000001 46.9 -16.8000000000001 46.3 -17.9L39.1 -32.9C38.8 -33.4 38.3 -33.8 37.8 -33.8H22.4C21.3 -33.7 20.6 -32.5 21.1 -31.4zM24.9 -58.4L18.2 -73.4C17.9 -74.0000000000001 17.4 -74.3 16.8 -74.3H1.5C0.4 -74.3 -0.4 -73 0.1 -71.9L6.8 -56.9C7.1 -56.3 7.6 -56.0000000000001 8.2 -56.0000000000001H23.5C24.6 -56.0000000000001 25.4 -57.3000000000001 24.9 -58.4zM35.1 -55.5000000000001L41.8 -40.5000000000001C42.1 -39.9 42.6 -39.6000000000001 43.2 -39.6000000000001H58.5C59.6 -39.6000000000001 60.4 -40.9000000000001 59.9 -42.0000000000001L53.2 -57.0000000000001C52.9 -57.6000000000001 52.4 -57.9 51.8 -57.9H36.4C35.3 -57.9 34.6 -56.6 35.1 -55.5000000000001zM75.4 -82.7L68.7 -97.7C68.4 -98.3000000000001 67.9 -98.6 67.3 -98.6H52.1C51 -98.6 50.3 -97.3 50.7 -96.2L57.4 -81.2C57.7 -80.6 58.2 -80.3000000000001 58.8 -80.3000000000001H74.1C75.2 -80.3000000000001 75.9 -81.6000000000001 75.4 -82.7zM84.7 -18.3000000000001H69.4C68.3 -18.3000000000001 67.5 -17.0000000000001 68 -15.9000000000001L74.7 -0.9000000000001C75 -0.3000000000001 75.5 -1e-13 76.1 -1e-13H91.4C92.5 -1e-13 93.3 -1.3000000000001 92.8 -2.4000000000001L86.1 -17.4000000000001C85.8 -17.9000000000001 85.3 -18.3000000000001 84.7 -18.3000000000001zM111.7 -57.6000000000001L105 -72.6000000000001C104.7 -73.2000000000001 104.2 -73.5000000000001 103.6 -73.5000000000001H88.3C87.2 -73.5000000000001 86.5 -72.2 86.9 -71.1000000000001L93.6 -56.1000000000001C93.9 -55.5000000000001 94.4 -55.2000000000001 95 -55.2000000000001H110.3C111.4 -55.2000000000001 112.1 -56.5000000000001 111.7 -57.6000000000001zM452.6 196.2999999999999S384.6 31.6999999999999 373.9 10.0999999999999C369.9 1.9999999999999 360.3 -9.1000000000001 343.8 -9.1000000000001H288.7C277 -9.1000000000001 265.2 -2.3000000000001 259.5999999999999 8.0999999999999S225.9999999999999 86.7999999999999 199.2999999999999 149.8999999999999C166.9 72.5 118.4 -42 118.4 -42C118.2 -42.6 117.6 -43 117 -43H101.6C100.5 -43 99.8 -41.7 100.2 -40.7L151.3 82.8C151.9 84.2 151 85.7 149.6 85.8L131 86.2C130.2 86.2 129.6 85.7 129.2 85L100.8 16.6C100.6 16 100 15.6 99.4 15.6H84.1C83 15.6 82.3 16.9 82.7 17.9L129.3 128.7000000000001C129.9 130.1000000000001 129 131.7000000000001 127.6 131.7000000000001L109.2 131.8000000000001C108.5 131.8000000000001 107.8 131.3000000000001 107.5 130.6000000000001L77.5 59.3000000000001C77.2 58.7000000000001 76.7 58.3000000000001 76.1 58.3000000000001H60.7C59.6 58.3000000000001 58.9 59.6000000000001 59.3 60.7000000000001C59.3 60.7000000000001 127.5 226.0000000000001 138.2 247.6000000000001C142.2 255.7000000000001 151.8 266.8000000000001 168.3 266.8000000000001H232C235.8 266.7000000000001 239.2 265.9000000000001 242.3 264.8000000000001C242.4 264.8000000000001 242.5 264.7000000000001 242.6 264.7000000000001C248.9000000000001 262.4000000000001 254.9000000000001 258.2000000000001 258.4000000000001 251.8000000000001L258.5000000000001 251.7000000000001C259.6000000000001 250.1000000000001 260.6000000000001 248.5000000000001 261.3000000000001 247.0000000000001C268.4000000000001 232.9000000000001 296.7000000000001 164.6000000000001 316.6000000000001 116.4000000000001C348.9 193.3 393.7 299 393.7 299C393.9 299.6 394.5 300 395.1 300H410.5C411.6 300 412.3 298.8 411.8999999999999 297.7L360.7999999999999 174.2C360.1999999999999 172.8 361.0999999999999 171.3 362.4999999999999 171.2L381.0999999999999 170.8C381.7999999999999 170.8 382.4999999999999 171.3 382.8999999999999 172L411.2999999999999 240.4C411.5999999999999 241 412.0999999999999 241.4 412.6999999999999 241.4H428.0999999999999C429.1999999999999 241.4 429.8999999999999 240.1 429.4999999999999 239.1L382.8999999999998 128.3C382.2999999999998 126.9 383.1999999999998 125.3 384.5999999999998 125.3L402.9999999999998 125.1999999999999C403.6999999999998 125.1999999999999 404.3999999999998 125.6999999999999 404.6999999999998 126.3999999999999L434.6999999999998 197.6999999999999C434.9999999999998 198.2999999999999 435.4999999999998 198.6999999999999 436.0999999999998 198.6999999999999H451.3999999999997C452.3999999999997 198.6999999999999 453.0999999999997 197.3999999999999 452.5999999999997 196.2999999999999zM477.6 256.3999999999999L461.4999999999999 218.8999999999999C461.1999999999999 218.2999999999999 460.6999999999999 217.8999999999999 460.1 217.8999999999999H444.2C443.1 217.8999999999999 442.4 219.1999999999999 442.8 220.2999999999999L459.4 257.8C459.7 258.3999999999999 460.2 258.7 460.8 258.7H476.1C477.3 258.8 478 257.5 477.6 256.3999999999999zM490.9 288.4999999999999L484.2 273.4999999999999C483.9 272.8999999999999 483.4 272.5999999999999 482.8 272.5999999999999H467C465.9 272.5999999999999 465.1 273.8999999999999 465.7 274.9999999999999L472.9 289.9999999999999C473.2 290.4999999999999 473.7 290.8999999999999 474.2 290.8999999999999H489.5C490.7 290.8999999999999 491.4 289.5999999999999 490.9 288.4999999999999zM511.8 329.0999999999999L505.1 314.0999999999999C504.8 313.4999999999999 504.3 313.2 503.7 313.2H488.4C487.3 313.2 486.5 314.4999999999999 487 315.5999999999999L493.7 330.5999999999999C494 331.2 494.5 331.4999999999999 495.1 331.4999999999999H510.4C511.6 331.4999999999999 512.3 330.2 511.8 329.0999999999999z" />
    <glyph glyph-name="amazon-pay-card"
      unicode="&#xF109;"
      horiz-adv-x="660" d=" M238.8 244.5C233.4 259.2 223.2 265.3 210.7 266.2C196.6 267.3 184 263.1 172.5 255.1C171.5 254.5 171 253.5 171.1 252.3C171.2 240.5 171.1 228.8 171.1 217S171.2 193.5 171.1 181.6C171 180.5 171.6 179.4 172.5 178.8C181.9 172.2 192.1 167.7 203.8 167.2C220.7 166.4 233.8 173.2 239.5 191.1C242.7 203.4 245.2 230.6 238.8 244.5zM372.8 204.2C372.8 205.5 372.4000000000001 206.2 371 206.4C364 207.3 344.1 212.1 329.3 207.4C318.2 204.6 311.2 193 315.6 178.1C318.1 169.2 328 163.9 340.1 165.4C351.8 166.6 362.1 171.1 371.4000000000001 177.9C372.2000000000001 178.4 372.7000000000001 179.4 372.7000000000001 180.4C372.7000000000001 184.4 372.7000000000001 200.2 372.8000000000001 204.2zM238.8 244.5C233.4 259.2 223.2 265.3 210.7 266.2C196.6 267.3 184 263.1 172.5 255.1C171.5 254.5 171 253.5 171.1 252.3C171.2 240.5 171.1 228.8 171.1 217S171.2 193.5 171.1 181.6C171 180.5 171.6 179.4 172.5 178.8C181.9 172.2 192.1 167.7 203.8 167.2C220.7 166.4 233.8 173.2 239.5 191.1C242.7 203.4 245.2 230.6 238.8 244.5zM372.8 204.2C372.8 205.5 372.4000000000001 206.2 371 206.4C364 207.3 344.1 212.1 329.3 207.4C318.2 204.6 311.2 193 315.6 178.1C318.1 169.2 328 163.9 340.1 165.4C351.8 166.6 362.1 171.1 371.4000000000001 177.9C372.2000000000001 178.4 372.7000000000001 179.4 372.7000000000001 180.4C372.7000000000001 184.4 372.7000000000001 200.2 372.8000000000001 204.2zM238.8 244.5C233.4 259.2 223.2 265.3 210.7 266.2C196.6 267.3 184 263.1 172.5 255.1C171.5 254.5 171 253.5 171.1 252.3C171.2 240.5 171.1 228.8 171.1 217S171.2 193.5 171.1 181.6C171 180.5 171.6 179.4 172.5 178.8C181.9 172.2 192.1 167.7 203.8 167.2C220.7 166.4 233.8 173.2 239.5 191.1C242.7 203.4 245.2 230.6 238.8 244.5zM372.8 204.2C372.8 205.5 372.4000000000001 206.2 371 206.4C364 207.3 344.1 212.1 329.3 207.4C318.2 204.6 311.2 193 315.6 178.1C318.1 169.2 328 163.9 340.1 165.4C351.8 166.6 362.1 171.1 371.4000000000001 177.9C372.2000000000001 178.4 372.7000000000001 179.4 372.7000000000001 180.4C372.7000000000001 184.4 372.7000000000001 200.2 372.8000000000001 204.2zM238.8 244.5C233.4 259.2 223.2 265.3 210.7 266.2C196.6 267.3 184 263.1 172.5 255.1C171.5 254.5 171 253.5 171.1 252.3C171.2 240.5 171.1 228.8 171.1 217S171.2 193.5 171.1 181.6C171 180.5 171.6 179.4 172.5 178.8C181.9 172.2 192.1 167.7 203.8 167.2C220.7 166.4 233.8 173.2 239.5 191.1C242.7 203.4 245.2 230.6 238.8 244.5zM372.8 204.2C372.8 205.5 372.4000000000001 206.2 371 206.4C364 207.3 344.1 212.1 329.3 207.4C318.2 204.6 311.2 193 315.6 178.1C318.1 169.2 328 163.9 340.1 165.4C351.8 166.6 362.1 171.1 371.4000000000001 177.9C372.2000000000001 178.4 372.7000000000001 179.4 372.7000000000001 180.4C372.7000000000001 184.4 372.7000000000001 200.2 372.8000000000001 204.2zM637 383H25.1C11.8 383 1 372.2 1 358.9V-103.9C1 -117.2 11.8 -128 25.1 -128H636.9C650.1999999999999 -128 661 -117.2 661 -104V358.9C661 372.2 650.2 383 637 383zM417.6 283.3C424.1 283.4 430.4000000000001 283.3 436.8 283.2C439.5 283.2 441.2 281.6 442.2 279.2C444 274.5 480.7 173.2 480.7 173.2S517.2 277.9 517.7 279C518.6 281.8 521.3000000000001 283.6 524.2 283.4C529.7 283.4 535.3000000000001 283.5 540.9000000000001 283.4C544.8000000000001 283.4 544.6000000000001 280.7 542.7 275.1C523.1 224.9 503.4 174.7 483.5000000000001 124.6C481.3000000000001 119.3 478.8000000000001 114.1 475.8000000000001 109.2000000000001C468.4000000000001 96.7000000000001 457.0000000000001 90.9 442.7000000000001 91.3000000000001C437.9000000000001 91.5000000000001 433.2000000000001 92.1000000000001 428.5000000000001 93.0000000000001C424.0000000000001 93.8000000000001 422.4000000000001 95.8000000000001 422.3000000000001 100.5000000000001C422.2000000000001 103.2000000000001 422.2000000000001 106.0000000000001 422.3000000000001 108.8000000000001C422.4000000000001 111.7000000000001 423.8000000000001 113.0000000000001 426.6000000000001 112.8000000000001C434.3000000000001 111.1000000000001 441.6000000000001 111.8000000000001 445.8000000000001 112.9000000000001C451.8000000000001 114.5000000000001 456.0000000000001 118.6000000000001 458.5000000000001 124.0000000000001C461.3000000000001 130.1000000000001 463.5000000000001 136.6000000000001 466.3000000000001 142.7000000000001C467.9000000000001 146.2000000000001 467.6000000000001 149.1000000000001 466.1000000000001 152.6000000000001C449.5000000000001 193.2000000000001 433.0000000000001 233.9000000000001 416.6000000000001 274.5000000000001C414.3000000000001 279.7000000000001 414.0000000000001 283.4000000000001 417.6000000000001 283.3000000000002zM372.4000000000001 245.1C372.2000000000001 250 371.1 254.8 367.9000000000001 258.8C364.4000000000001 263.4 359.3 265 353.8 265.8C343.3 267.4 332.9000000000001 266.6 322.6 264.6C316 263.3 309.4000000000001 261.5 302.9000000000001 259.8C299.0000000000001 258.8 297.3 259.9 297.2000000000001 263.9C297.1 266.7 297.3000000000001 269.4 297.2000000000001 272.2C297.1 275.5 298.6 277.7 301.6 278.7C314.6 283.9 334.3 287.4 353.2000000000001 287.4C363.1 287.4 374.9000000000001 283.7 380.5000000000001 280.4C395.3000000000001 271.6 397.2000000000001 256.1 397.2000000000001 244.1C397.2000000000001 244.1 397.2000000000001 153.7 397.1 152.9C397 150.7 395.3 149 393.1 149C388.6 148.9 384 148.9 379.4000000000001 149C377.0000000000001 149.1 375.4000000000001 150.8 374.9000000000001 153.4C374.3 156.4 373.9000000000001 159.4 373.4000000000001 162.6C365.0000000000001 155.3 353.5000000000001 148.4 338.3 146.3C315.4000000000001 142.2 291 154.1 288.6 177.4C284.9000000000001 205.3 302.9000000000001 220.6 316.5 224C340.3 232.3 372.3 222.8 372.8 222.6999999999999C373 223.0999999999999 372.7 238.2 372.4000000000001 245.1zM151.9 283.3H161.5C165.4 283.3 167.3000000000001 281.6 167.9 277.8C168.3000000000001 275.5 168.7000000000001 273.2 169 270.9C169 270.5 169.2 270.1 169.3000000000001 269.7C182.7000000000001 281 199.4 288.2 217.6 287.3C240.1 286.2 255.5000000000001 271.5 262.6 255.1C268.4000000000001 241.8 269.8 227.7 269.4000000000001 213.4C269.1 200.5 266.6 188.1 260.8 176.4C253.1 161 241.2 150.5 224.1 147.2C205.2 143.5 188 147.6 173 160.1C172.6 160.5 172.1 160.9 171.2 161.7C171.2 161.7 171.2 99.4 171.1 98.5C170.8 96 169.3 94.3 166.9 94.3C161 94.2 155.1 94.2 149.2000000000001 94.3C146.8000000000001 94.4 145.3000000000001 96 145.1000000000001 98.5C145.0000000000001 99.3 145.0000000000001 276.4 145.0000000000001 276.4C145.1000000000001 282.2 146.2000000000001 283.3 151.9000000000001 283.3zM543.5 32.9C495.6 -7 392.9 -37.3 313.7 -31.9C215.9 -26 134.6 16 82 63C74.6 70.1 80.1 75.1 86.4 71.5C95.1 66.8 205.9 5.6 307.5 5.6C364.5 5.6 414.2 -1.7 532.3 43.5C542.9 48.1 549.3 39 543.5 32.9zM590.5 57.5C588.3 41.3 578.9 9.1 557.4 -9.5C551.3 -14.4 548.5 -10 550.8 -5.6C555.6999999999999 6.8 568.1999999999999 38.5 567 51.7C566.8 56.1 564.9 59.2 560.6 60.4C548.4 64.8 518.8000000000001 62.8 500.3 59.8C494.4 58.8 493 63.6 499 67.4999999999999C521.6 82.6 559.3 86.6999999999999 583 78.8999999999999C586.6 77.6999999999999 589.8 76.0999999999999 590.6 71.8999999999999V57.4999999999999H590.5zM371 206.4C364 207.3 344.1 212.1 329.3 207.4C318.2 204.6 311.2 193 315.6 178.1C318.1 169.2 328 163.9 340.1 165.4C351.8 166.6 362.1 171.1 371.4000000000001 177.9C372.2000000000001 178.4 372.7000000000001 179.4 372.7000000000001 180.4C372.6 184.3 372.7000000000001 200.2 372.8000000000001 204.2C372.8000000000001 205.6 372.4000000000001 206.2 371.0000000000001 206.4zM171 217.1C171 205.3 171.1 193.6 171 181.7C170.9 180.6 171.5 179.5 172.4 178.9C181.8 172.3 192 167.8 203.7 167.3C220.6 166.5 233.7 173.3 239.4000000000001 191.2C242.6 203.5 245.1 230.6 238.6 244.5C233.2 259.2 223 265.3 210.5 266.2C196.4 267.3 183.8000000000001 263.1 172.3 255.1C171.3 254.5 170.8 253.5 170.9 252.3C171.1 240.5 171 228.9 171 217.1zM372.8 204.2C372.8 205.5 372.4000000000001 206.2 371 206.4C364 207.3 344.1 212.1 329.3 207.4C318.2 204.6 311.2 193 315.6 178.1C318.1 169.2 328 163.9 340.1 165.4C351.8 166.6 362.1 171.1 371.4000000000001 177.9C372.2000000000001 178.4 372.7000000000001 179.4 372.7000000000001 180.4C372.7000000000001 184.4 372.7000000000001 200.2 372.8000000000001 204.2zM238.8 244.5C233.4 259.2 223.2 265.3 210.7 266.2C196.6 267.3 184 263.1 172.5 255.1C171.5 254.5 171 253.5 171.1 252.3C171.2 240.5 171.1 228.8 171.1 217S171.2 193.5 171.1 181.6C171 180.5 171.6 179.4 172.5 178.8C181.9 172.2 192.1 167.7 203.8 167.2C220.7 166.4 233.8 173.2 239.5 191.1C242.7 203.4 245.2 230.6 238.8 244.5zM372.8 204.2C372.8 205.5 372.4000000000001 206.2 371 206.4C364 207.3 344.1 212.1 329.3 207.4C318.2 204.6 311.2 193 315.6 178.1C318.1 169.2 328 163.9 340.1 165.4C351.8 166.6 362.1 171.1 371.4000000000001 177.9C372.2000000000001 178.4 372.7000000000001 179.4 372.7000000000001 180.4C372.7000000000001 184.4 372.7000000000001 200.2 372.8000000000001 204.2zM238.8 244.5C233.4 259.2 223.2 265.3 210.7 266.2C196.6 267.3 184 263.1 172.5 255.1C171.5 254.5 171 253.5 171.1 252.3C171.2 240.5 171.1 228.8 171.1 217S171.2 193.5 171.1 181.6C171 180.5 171.6 179.4 172.5 178.8C181.9 172.2 192.1 167.7 203.8 167.2C220.7 166.4 233.8 173.2 239.5 191.1C242.7 203.4 245.2 230.6 238.8 244.5zM238.8 244.5C233.4 259.2 223.2 265.3 210.7 266.2C196.6 267.3 184 263.1 172.5 255.1C171.5 254.5 171 253.5 171.1 252.3C171.2 240.5 171.1 228.8 171.1 217S171.2 193.5 171.1 181.6C171 180.5 171.6 179.4 172.5 178.8C181.9 172.2 192.1 167.7 203.8 167.2C220.7 166.4 233.8 173.2 239.5 191.1C242.7 203.4 245.2 230.6 238.8 244.5zM238.8 244.5C233.4 259.2 223.2 265.3 210.7 266.2C196.6 267.3 184 263.1 172.5 255.1C171.5 254.5 171 253.5 171.1 252.3C171.2 240.5 171.1 228.8 171.1 217S171.2 193.5 171.1 181.6C171 180.5 171.6 179.4 172.5 178.8C181.9 172.2 192.1 167.7 203.8 167.2C220.7 166.4 233.8 173.2 239.5 191.1C242.7 203.4 245.2 230.6 238.8 244.5z" />
    <glyph glyph-name="amazon-pay"
      unicode="&#xF10A;"
      horiz-adv-x="512" d=" M8.057 72.021C16.771 67.328 127.502 6.166 229.168 6.166C286.169 6.166 335.835 -1.167 454.002 44.033C464.48 48.595 470.9139999999999 39.492 465.0629999999999 33.391C417.168 -6.501 314.502 -36.835 235.219 -31.38C137.5009999999999 -25.5 56.168 16.5 3.6159999999999 63.474C-3.7900000000001 70.551 1.6739999999999 75.603 8.0569999999999 72.021zM90.928 270.275A3.582 3.582 0 0 1 90.593 271.447C90.259 273.7100000000001 89.923 276.056 89.504 278.319C88.918 282.174 86.99 283.85 83.136 283.85H73.5C67.719 283.85 66.629 282.76 66.629 276.978C66.629 276.978 66.629 99.924 66.712 99.086C66.88 96.572 68.389 94.98 70.818 94.897C76.684 94.813 82.632 94.813 88.498 94.897C90.928 94.897 92.436 96.573 92.688 99.086C92.771 99.924 92.771 162.266 92.771 162.266C93.693 161.512 94.196 161.093 94.614 160.674C109.613 148.189 126.875 144.083 145.728 147.77C162.822 151.122 174.72 161.596 182.43 177.014C188.295 188.661 190.725 201.062 191.06 213.966C191.479 228.295 190.055 242.373 184.272 255.695C177.15 272.118 161.758 286.79 139.276 287.871C121.008 288.75 104.35 281.565 90.928 270.275zM92.604 252.846A2.915 2.915 0 0 1 94.029 255.611C105.508 263.571 118.161 267.76 132.238 266.6720000000001C144.723 265.751 154.946 259.633 160.308 244.97C166.746 231.117 164.3 203.938 161.062 191.678C155.364 173.83 142.292 167.043 125.367 167.797C113.636 168.299 103.413 172.824 94.029 179.444A2.99 2.99 0 0 1 92.604 182.209C92.688 194.023 92.604 205.754 92.604 217.569C92.604 229.383 92.688 241.031 92.604 252.846zM223.32 279.324C220.304 278.319 218.796 276.14 218.88 272.872C218.963 270.1070000000001 218.796 267.342 218.88 264.576C218.963 260.555 220.639 259.4650000000001 224.578 260.471C231.114 262.1470000000001 237.649 263.991 244.269 265.247C254.575 267.1740000000001 264.9650000000001 268.012 275.44 266.42C280.886 265.582 285.998 263.99 289.517 259.3810000000001C292.618 255.359 293.79 250.582 293.958 245.639C294.209 238.684 294.585 223.597 294.493 223.211C294.074 223.295 262.026 232.802 238.235 224.524C224.625 221.125 206.625 205.875 210.332 177.935C212.749 154.625 237.124 142.75 260.021 146.848C275.25 149 286.75 155.875 295.13 163.188C295.633 160.004 296.052 156.987 296.638 153.971C297.142 151.373 298.733 149.698 301.163 149.614C305.686 149.531 310.296 149.531 314.821 149.614A4.054 4.054 0 0 0 318.843 153.552C318.913 154.332 318.926 244.719 318.926 244.719C318.926 256.751 316.998 272.251 302.251 281.001C296.637 284.353 284.873 288.04 274.935 288.04C255.991 288.039 236.375 284.5 223.32 279.324zM294.293 180.951A2.789 2.789 0 0 1 293.0350000000001 178.438C283.6500000000001 171.65 273.3450000000001 167.125 261.697 165.952C249.583 164.416 239.75 169.666 237.23 178.605C232.7500000000001 193.5 239.8330000000001 205.166 250.888 207.932C265.75 212.583 285.578 207.849 292.617 206.926C293.9580000000001 206.759 294.3760000000001 206.089 294.3760000000001 204.748C294.293 200.727 294.2090000000001 184.89 294.293 180.951zM512.07 72.523C511.2310000000001 76.713 508.0480000000001 78.305 504.4440000000001 79.478C480.7360000000001 87.242 443.1150000000001 83.227 420.4840000000001 68.082C414.5500000000001 64.179 415.8950000000001 59.373 421.8260000000001 60.374C440.3630000000001 63.382 469.9550000000001 65.331 482.1550000000001 60.96C486.4290000000001 59.787 488.3560000000001 56.603 488.5230000000001 52.246C489.7970000000001 39.065 477.2110000000001 7.334 472.3510000000001 -5.068C470.0700000000001 -9.453 472.8220000000001 -13.811 478.9710000000001 -8.9230000000001C500.4640000000001 9.5899999999999 509.8690000000001 41.8219999999999 512.07 58.0279999999999V72.5229999999999zM363.673 279.7440000000001C362.752 282.174 360.991 283.766 358.311 283.766C351.943 283.85 345.575 283.933 339.123 283.85C335.534 283.925 335.836 280.237 338.033 274.968A37306.46 37306.46 0 0 0 387.5540000000001 153.049C388.9790000000001 149.614 389.314 146.681 387.7220000000001 143.162C384.9570000000001 137.045 382.778 130.593 379.9280000000001 124.476C377.4150000000001 119.029 373.2260000000001 114.923 367.1920000000001 113.331C362.9850000000001 112.231 355.7120000000001 111.549 348.0040000000001 113.247C345.1550000000001 113.415 343.7310000000001 112.157 343.6480000000001 109.225A136.55 136.55 0 0 0 343.6480000000001 100.93C343.7310000000001 96.322 345.3230000000001 94.227 349.8480000000001 93.472A90.72 90.72 0 0 0 364.0080000000001 91.796C378.3360000000001 91.461 389.7340000000001 97.243 397.1070000000001 109.729A110.29 110.29 0 0 0 404.8160000000001 125.146A29081.684 29081.684 0 0 0 463.9740000000001 275.6379999999999C465.8930000000001 281.26 466.0950000000001 283.934 462.2130000000001 283.934C456.6830000000001 284.017 451.0680000000001 283.934 445.5380000000001 283.934A6.318 6.318 0 0 0 439.0860000000001 279.577C438.6680000000001 278.404 402.1340000000001 173.7459999999999 402.1340000000001 173.7459999999999S365.4330000000001 275.051 363.6730000000001 279.7439999999999z" />
    <glyph glyph-name="amazon"
      unicode="&#xF10B;"
      horiz-adv-x="448" d=" M257.2 221.3C208.5 219.5 87.7 205.8 87.7 103.8C87.7 -5.7 226 -10.2 271.2 60.6C277.7 50.4 306.6 23.1 316.5 13.8L373.3 69.8S341 95.1 341 122.6V269.7C341 295 316.5 352 228.7 352C140.7 352 94 297 94 247.7L167.5 240.9C183.8 290.4 221.7 290.4 221.7 290.4C262.4 290.5 257.2 260.6 257.2 221.3zM257.2 134.5C257.2 54.5 173 66.5 173 117.3C173 164.5 223.5 174 257.2 175.1V134.5zM393.2 -29C385.5 -39 323.2 -96 218.7 -96S34.2 -24.5 9.7 5C2.9 12.7 10.7 16.3 15.2 13.3C88.5 -31.2 203 -104.5 387.7 -17C395.2 -13.3 401 -19 393.2 -29zM433 -31.2C426.5 -47 417 -58 411.8 -62.2C406.3 -66.7 402.3 -64.9 405.3 -58.4S424.6 -11.9 418 -3.4C411.5 4.9 381 0.9 370 -0.2C359.2 -1.2 357 -2.2 356 0.1C353.7 5.8 377.7 15.6 393.5 17.6C409.2 19.4 434.5 18.4 439.5 11.9C443.2 6.8 439.5 -15.2 433 -31.2z" />
    <glyph glyph-name="american-express-card"
      unicode="&#xF10C;"
      horiz-adv-x="660" d=" M660 13.2V-106.6C660 -118.4 650.4 -128 638.6 -128H21.4C9.6 -128 0 -118.4 0 -106.6V138.4H30.6L37.6 155.2H53.5L61 138.4H124V151.1L129.7 138.4H162.2L167.9 151.5V138.4H322.8V166L325.7 166.3C327.5999999999999 166.3 328.5999999999999 165 328.5999999999999 162.5V138.3H408.7V144.7C413.0999999999999 142.4 418.3 140.8 424.3999999999999 139.7C430.3999999999999 138.6 435.3999999999999 138 439.2 138C443.0999999999999 138 449 138.1 457.1999999999999 138.2C465.3 138.3 470.3 138.4 471.8999999999999 138.4L479.2999999999999 155.2H495.3999999999999L502.3999999999999 138.4H567.0999999999999V154.8L576.9999999999999 138.4H629.4999999999999V244.1H577.2999999999998V231.9L570.2999999999998 244.1H517.3999999999999V231.9L511.0999999999999 244.1H440C426.6 244.1 416.2 242.1 408.6 238V244.1H358.9000000000001V238C354.2000000000001 242.1 347.2000000000001 244.1 337.8 244.1H157.7L145.5 216.8L133.3 244.1H76.7V231.9L70.4 244.1H22.3L0 194V362.6C0 374.4 9.6 384 21.4 384H638.6C650.4 384 660 374.4 660 362.6V114.1H625.7C615.9000000000001 114.1 608.3000000000001 112.1 602.6 108V114.1L551.8000000000001 113.3C541.2 113.3 533.8000000000001 111.3 529.3000000000001 107.2V113.3H438.3000000000001V107.2C432.4000000000001 111.3 424.1000000000001 113.3 413.3000000000001 113.3H354V107.2C349.6 111.2 340.9 113.3 328.1 113.3H261L245.6 97.4L231.3 113.3H131.6V8.5H230.8L246.4 25L261.2 8.5H321.2V33.7H327.0999999999999C338.2 33.7 346.5999999999999 35 352.3999999999999 37.5V8.6H402V36.3H404.3C406 36.3 407.1 36.1 407.4000000000001 35.8S408.0000000000001 34.5 408.0000000000001 32.9V8.7H559.9000000000001C570.9000000000001 8.7 579.2 11.0000000000001 585.1000000000001 15.5000000000001V8.7H632.9000000000001C644.2 8.4 653.3000000000001 10.0000000000001 660.0000000000001 13.2zM200.6 229V153.5H181.2V211.9L154.1 153.5H137.5L110.4 211.9V153.5H72.4L65.4 170.3H26.6L19.2 153.5H0.6L33.9 229H61.2L92.7 157.6V229H123.1L147.6 178L169.7 229H200.6zM34 185.4H59.6L46.7 215.8L34 185.4zM359.5 74.2C359.5 70.6 359 67.3 357.9 64.6C356.8 61.7 355.5 59.4 353.9 57.6C352.3 55.8 350.1 54.2 347.4 52.9999999999999C344.7 51.6999999999999 342.2 50.8 339.9 50.3C337.6 49.6999999999999 334.5 49.3 330.8 49.1C327 48.8 324.1 48.8 321.9 48.8C319.6 48.8 316.6 48.9 312.6 48.9999999999999C308.7 49.1 305.8 49.1999999999999 304.2 49.1999999999999V23.5999999999999H268.2L245.1 48.7999999999999L221.3 23.5999999999999H148.3V99H222.8L245.5 74.2L269 99H328.5C349.2 99 359.5 90.7 359.5 74.2zM211.3 39.5L232.5 61.5L212.7 83.1H166V69.7000000000001H207.3V54.6H166V39.5H211.3zM276.5 168.6V153.5H214.1V229H276.5V213.1H232.6V198.8H274.8V183.7H232.6V168.6H276.5zM257.4 61.1L285.7 30.4V90.7000000000001L257.4 61.1zM363.1 208.6C363.1 204.2 361.9 200.3 359.7 196.5C357.4 192.8000000000001 354.2 190.1 350.3 188.5C355.2 186.7 358.4000000000001 184.2 360.1 181.2C361.7000000000001 178.1 362.5 173.9 362.5 168.5V153.5H344.8V161V168C344.8 169.5 344.5 171.3 344 173.3S342.7 176.8 341.6 177.7S338.7000000000001 179.4 336.5 180.1C334.2 180.8 331.4 181.1 327.9 181.1H307.8V153.4H289.3V229L332.9 228.7C342.2 228.7 349.6 227.4 355 224.8S363.1 216.8 363.1 208.6zM340.1 73.8C340.1 80 336.3 83.1 328.8 83.1H304.3V63.8H328.4C336.2 63.8 340.1 67.1 340.1 73.8zM342.5 205C342.5 210.4 338.6 213.1 330.8 213.1H307.7V196.3H330.5C338.5 196.3 342.5 199.1 342.5 205zM442.7 78.6C442.7 74.5 441.5 70.6 439.2 66.9C436.8999999999999 63.1 433.7 60.5000000000001 429.3999999999999 58.9C434.2999999999999 57.1 437.5 54.5000000000001 439.2 51.4C440.8 48.2 441.5999999999999 44.0000000000001 441.5999999999999 38.8V23.5H423.0999999999999V36.2C423.0999999999999 42.3 421.9999999999999 46.3 419.7999999999999 48.4C417.4999999999999 50.3 413.2999999999999 51.3 406.6999999999999 51.3H386.7999999999999V23.6H368.2999999999999V99.1H412.2999999999999C421.3999999999999 99.1 428.6999999999999 97.8 434.2999999999999 94.9999999999999C439.8999999999999 92.1999999999999 442.6999999999999 86.8 442.6999999999999 78.6zM392.8 229V153.5H374.3V229H392.8zM422.1 75.4C422.1 80.5 418.1 83.1 410 83.1H386.9V66.3H410C418.1 66.3 422.1 69.3 422.1 75.4zM612.8 229V153.5H586.4L551.3 209.5V153.5H513.3L505.9 170.3H467.2L460.2 153.5H439.3C414.8 153.5 402.6 165.8 402.6 190.6C402.6 216.2 415.3 229 440.8 229H458.7V212.9C457.3 212.9 454.6 213 450.6 213.2C446.7 213.5 444 213.5 442.5 213.4C441.2 213.3 438.8999999999999 213.1 435.8999999999999 212.7C432.8999999999999 212.4 430.8999999999999 211.7 429.7999999999999 210.8S427.3999999999999 208.6 425.7999999999999 207C424.1999999999999 205.4 422.9999999999999 203.2 422.4999999999999 200.5C421.8999999999999 197.7 421.6999999999999 194.7 421.6999999999999 191.3C421.6999999999999 184.3 422.9999999999999 178.8 425.5999999999999 175C428.0999999999999 171.2 432.7999999999999 169.4 439.4999999999999 169.4H447.8999999999998L473.9999999999998 228.9H501.7999999999998L532.7999999999998 157.4V229H562.3999999999999L594.2999999999998 176.9V229H612.7999999999998zM515 39.1V23.5H452.6V99H515V83.1H472V69.7000000000001H514.2V54.6H472V39.5L515 39.1zM474.4 185.4H500L487.4 215.8000000000001L474.4 185.4zM591.3 47.5C591.3 31.5 581.5 23.5 561.9 23.5H525.9V39.4H561.9C568.4 39.4 571.6999999999999 41.7 571.6999999999999 46.3C571.6999999999999 49.1999999999999 570.0999999999999 51.1999999999999 566.8 52.3C563.5 53.3 559.5999999999999 53.8 554.9 53.8S545.5 54.1 540.6999999999999 54.6C535.9 55.2 531.9 57.2 528.5999999999999 60.7C525.3 64.2 523.6999999999999 69.4 523.6999999999999 76.3C523.6999999999999 83.6 526.1999999999999 89.2 531.1999999999999 93.1C536.1999999999999 97 542.5999999999999 98.9 550.1999999999999 98.9H587.3V83H553.4C546.4 83 542.9 80.7 542.9 75.9C542.9 73 544.6 71.1 547.9 70.3S555.3 69.1 560 69.1C564.7 69.1 569.3 68.8 574 68.4C578.7 68 582.7 66 586.1 62.4C589.6 59.1 591.3000000000001 54.1 591.3000000000001 47.5zM660 61.4V33.3C655.4 26.8 647 23.4999999999999 634.9 23.4999999999999H599.3V39.3999999999999H634.9C641.1999999999999 39.3999999999999 644.3 41.6999999999999 644.3 46.2999999999999C644.3 48.7999999999999 643.0999999999999 50.6999999999999 640.8 51.7999999999999C638.5 52.9999999999999 635.5 53.4999999999999 631.9 53.2999999999999C628.3 53.1999999999999 624.4 53.3999999999999 620.4 53.7999999999999S612.5 54.9999999999999 609.1 55.9999999999999C605.7 56.9999999999999 602.6 59.2999999999999 600.2 62.6999999999999C597.8000000000001 66.0999999999999 596.5 70.6999999999999 596.5 76.3999999999999C596.5 83.6999999999999 599.1 89.2999999999998 604.2 93.1999999999999C609.3000000000001 97.0999999999999 615.7 98.9999999999999 623.4000000000001 98.9999999999999H660V82.9999999999999H626.5C619.5 82.9999999999999 616 80.6999999999999 616 75.8999999999999C616 72.2999999999998 618.8 70.2999999999998 624.4 69.7999999999998C630 69.3999999999999 636.5 68.8999999999999 643.9 68.4999999999998C651.4 68.0999999999999 656.6999999999999 65.6999999999998 660 61.3999999999998z" />
    <glyph glyph-name="android"
      unicode="&#xF10D;"
      horiz-adv-x="442" d=" M335.6 292.7C320.7000000000001 313.4 302.1 329 279.7000000000001 339.4L299.7000000000001 378.6C301.0000000000001 381.1 299.2000000000001 384 296.4000000000001 384C295.0000000000001 384 293.7000000000001 383.2 293.1 382C288.9000000000001 374 273.6 344.4 272.4000000000001 342.3C256.2000000000001 348.6 239.2000000000001 351.7 221.4 351.7C203.6 352 186.6 348.8 170.4 342.3C168.9 344.8 154.1 374 150 382C149.4 383.3 148.1 384 146.7 384H146.5C143.7 384 141.9 381.1 143.2 378.6C149 367.2 162 341.7 163 339.4C140.6 329 121.8 313.4 106.7 292.3C91.8 271.6 83.2 248.8 80.8 224H362C359.5 248.8 350.8 271.7 335.6 292.7zM158.2 248.9C145.4 248.9 135.1 259.2 135.1 272S145.4 295.1 158.2 295.1S181.3 284.8 181.3 272S171 248.9 158.2 248.9zM284.3 248.9C271.5 248.9 261.2 259.2 261.2 272S271.5 295.1 284.3 295.1S307.4000000000001 284.8 307.4000000000001 272S297.1 248.9 284.3 248.9zM32.7 223.7C24 223.7 16.1 220.2 10.4 214.5C4.7 208.8 1.2 200.9 1.2 192.2V63.7C1.2 46.3 15.3 32.2 32.7 32.2C41.4 32.2 49.3 35.7 55 41.4C60.7 47.1 64.2 55 64.2 63.7V192.2C64.2 209.6 50.1 223.7 32.7 223.7zM441.4 192.6C441.4 209.8 427.4 223.8 410.2 223.8S379 209.8 379 192.6V63.8C379 46.4999999999999 393 32.4 410.4 32.4C427.7 32.4 441.8 46.4 441.8 63.7V63.8C441.6 101.7 441.4 163.6 441.4 192.6zM80 192.1V15.3C80 -11.4 103.8 -31.8000000000001 124.4 -31.8000000000001H142.4C142.6 -34.6000000000001 142.7 -69.8000000000001 142.7 -96.7C142.7 -113.9 156.7 -127.9 173.9 -128H174C191.4 -128.1 205.6 -114 205.6 -96.6V-31.8H237.2V-96.6C237.2 -113.9 251.1 -127.9 268.4 -128H268.6C285.9 -128 300 -114 300 -96.6V-31.8H316.3999999999999C337.8999999999999 -31.8 362.7999999999999 -13.8 362.7999999999999 16.9V192.1H80z" />
    <glyph glyph-name="angular"
      unicode="&#xF10E;"
      horiz-adv-x="494" d=" M246.2 384L0 296.7L36.5 -17L246.9 -128L456.7 -17L494 296.7L246.2 384zM343.9 -8.2L311.6 66.2000000000001H181.8L150 -8.2H92.8L246.2 325.6L402 -8.2H343.9zM201.7 112.7H291.4L246.2 216.8L201.7 112.7z" />
    <glyph glyph-name="app-store-circle"
      unicode="&#xF10F;"
      horiz-adv-x="512" d=" M256 384C114.6 384 0 269.4 0 128S114.6 -128 256 -128S512 -13.4 512 128S397.3 384 256 384zM145.1 -2.9C138.8 -13.9 124.8 -17.5 113.9 -11.2C102.9 -4.9 99.3 9.1 105.6 20L121.9 48.2C140.3 53.8 155.4 49.5 167.2 35.2L145.1 -2.9zM303.9 58.7000000000001H96C83.4 58.7000000000001 73.1 69.0000000000001 73.1 81.6C73.1 94.2000000000001 83.4 104.5 96 104.5H154.3L229 233.8L205.6 274.3C199.3 285.3 203.1 299.2000000000001 213.9 305.5C224.9 311.8 238.8 308 245.1 297.2000000000001L255.3 279.6L265.5 297.2000000000001C271.8 308.2000000000001 285.8 311.8 296.7 305.5C307.7 299.2000000000001 311.3 285.2000000000001 305 274.3L207 104.5H278C301 104.5 313.9 77.4 303.9 58.7zM416 58.7000000000001H382.9L405.3 20.0000000000001C411.6 9.0000000000001 407.8 -4.8999999999999 396.9 -11.1999999999999C385.9 -17.4999999999999 372 -13.6999999999999 365.7 -2.8999999999999C328.1 62.1000000000001 300 111.1000000000001 281.1 143.5000000000001C262 176.7000000000001 275.6 209.8000000000001 289.2000000000001 221.0000000000001C304.2000000000001 195.1000000000001 326.6 156.2000000000001 356.5000000000001 104.4000000000001H416C428.6 104.4000000000001 438.9 94.1000000000001 438.9 81.5000000000001C438.9 68.9000000000001 428.6 58.7000000000001 416 58.7000000000001z" />
    <glyph glyph-name="app-store-square"
      unicode="&#xF110;"
      horiz-adv-x="512" d=" M462 384H50C22.4 384 0 361.6 0 334V-78C0 -105.6 22.4 -128 50 -128H462C489.6 -128 512 -105.6 512 -78V334C512 361.6 489.6 384 462 384zM145.1 -18.9C138.8 -29.9 124.8 -33.5 113.9 -27.2C102.9 -20.9 99.3 -6.9 105.6 4L121.9 32.2C140.3 37.8 155.4 33.5 167.2 19.2L145.1 -18.9zM303.9 42.7H96C83.4 42.7 73.1 53.0000000000001 73.1 65.6C73.1 78.2000000000001 83.4 88.5 96 88.5H154.3L229 217.8L205.6 258.3C199.3 269.3 203.1 283.2000000000001 213.9 289.5C224.9 295.8 238.8 292 245.1 281.2000000000001L255.3 263.6L265.5 281.2000000000001C271.8 292.2000000000001 285.8 295.8 296.7 289.5C307.7 283.2000000000001 311.3 269.2000000000001 305 258.3L207 88.5H278C301 88.5 313.9 61.4 303.9 42.7zM416 42.7H382.9L405.3 4.0000000000001C411.6 -6.9999999999999 407.8 -20.8999999999999 396.9 -27.1999999999999C385.9 -33.4999999999999 372 -29.6999999999999 365.7 -18.8999999999999C328.1 46.1000000000001 300 95.1000000000001 281.1 127.5000000000001C262 160.7000000000001 275.6 193.8000000000001 289.2000000000001 205.0000000000001C304.2000000000001 179.1000000000001 326.6 140.2000000000001 356.5000000000001 88.4000000000001H416C428.6 88.4000000000001 438.9 78.1000000000001 438.9 65.5000000000001C438.9 52.9000000000001 428.6 42.7000000000001 416 42.7000000000001z" />
    <glyph glyph-name="app-store"
      unicode="&#xF111;"
      horiz-adv-x="510.9" d=" M256.4 -76C201.9 -76 150.7 -54.8 112.1 -16.3C73.6 22.3 52.4 73.5 52.4 128S73.6 233.7 112.1 272.3C150.6 310.8 201.9 332 256.4 332S362.1 310.8 400.7 272.3C439.2 233.8 460.4 182.5 460.4 128S439.2 22.3 400.7 -16.3C362.1 -54.8 310.9 -76 256.4 -76M256.4 -128C397.8 -128 512.4 -13.4 512.4 128S397.8 384 256.4 384S0.4 269.4 0.4 128S115 -128 256.4 -128z M140.9 57.9L126.8 33.6C121.4 24.2 124.5 12.1 134 6.7C143.4 1.3 155.5 4.4 160.9 13.9L179.9 46.7C169.7 59 156.7 62.7 140.9 57.9zM275.3 106.4H214.1L298.6 252.8C304 262.2 300.9000000000001 274.3 291.4000000000001 279.7C282.0000000000001 285.1 269.9000000000001 282 264.5000000000001 272.5L255.7000000000001 257.3L246.9000000000001 272.5C241.5000000000001 281.9 229.5000000000001 285.1 220 279.7C210.6 274.3 207.4 262.3 212.8000000000001 252.8L233.0000000000001 217.9L168.6 106.4H118.4C107.6 106.4 98.7 97.5 98.7 86.7C98.7 75.9 107.6 67 118.4 67H297.6C306.3 83 295.2000000000001 106.4 275.3 106.4zM394.3 106.4H343.1C317.3 151 298 184.5 285.1 206.9C273.4000000000001 197.2 261.7000000000001 168.7 278.1 140.1C294.4000000000001 112.1 318.6 70 351 13.9C356.4 4.5 368.4 1.3 377.9 6.7C387.3 12.1 390.5 24.1 385.1 33.6L365.7 67H394.3C405.1 67 414 75.8 414 86.7C414 97.5 405.1 106.4 394.3 106.4z" />
    <glyph glyph-name="apple-pay-card"
      unicode="&#xF112;"
      horiz-adv-x="660" d=" M314.6 206.5H279.8V138.4H314.6C332.4000000000001 138.4 346.8 152.8 346.8 170.6V174.3C346.8 192 332.4000000000001 206.5 314.6 206.5zM431.5 111.8C414.9 110.8 406.2 104.6 406.2 93.8C406.2 83.4 415.3 76.6 429.4 76.6C447.4 76.6 461.1 88 461.1 104V113.7L431.5 111.8zM431.5 111.8C414.9 110.8 406.2 104.6 406.2 93.8C406.2 83.4 415.3 76.6 429.4 76.6C447.4 76.6 461.1 88 461.1 104V113.7L431.5 111.8zM314.6 206.5H279.8V138.4H314.6C332.4000000000001 138.4 346.8 152.8 346.8 170.6V174.3C346.8 192 332.4000000000001 206.5 314.6 206.5zM637 383H25.1C11.8 383 1 372.2 1 358.9V-103.9C1 -117.2 11.8 -128 25.1 -128H636.9C650.1999999999999 -128 661 -117.2 661 -104V358.9C661 372.2 650.2 383 637 383zM137.3 227.7C143.9 235.7 155.4 241.4 164.8 241.9C165.9 231 161.5 220.2 155 212.2C148.4 204.4 137.9 198.2 127.3 199.1C126 209.6 131.2 220.9 137.3 227.7zM190.7 79C182.9 67.6 174.9 56.4 162.1 56.1C149.8 55.9 145.6 63.5 131.5 63.5C117.4 63.5 112.9 56.4 101.2 55.9C88.9 55.5 79.6 68 71.7 79.5C55.7 102.6 43.5 144.6 60 173C68 187.2 82.6 196 98.3 196.3C110.4 196.6 121.5 188.3 128.9 188.3C136.1 188.3 149.2 197.9 164.5 197C170.5 196.6 187.6 194.8 198.6 178.4C197.7 177.7 178.2 166.5 178.5 143C178.8 114.9 203.1 105.5 203.4 105.3C203.3 104.6 199.6 92.1 190.7 79zM373.3 169.4C373.3 139.9 349.4 116 319.9 116H279.5V57.5H252.8V228.9H320C349.5 228.9 373.4 205 373.4 175.5V169.4zM486.4999999999999 57.5H461.8999999999999V78.1H461.3999999999999C454.3999999999999 64.6 438.8999999999999 56.2 422.2 56.2C397.5 56.2 380.3 71.0000000000001 380.2 93.1C380.2 115.1 396.8999999999999 127.8 427.8 129.6L460.9999999999999 131.6V141.1C460.9999999999999 155.1 451.8999999999999 162.6 435.6 162.6C422.2 162.6 412.5 155.6 410.4 145.1H386.4C387.2 167.3 408.1 183.4 436.4 183.4C466.8 183.4 486.6 167.4 486.6 142.7000000000001V57.5000000000001zM568.3 50.8C557.6999999999999 20.8 545.4 10.9 519.5 10.9C519.5 10.9 510.9 11.2 509.3 11.5000000000001V32.1000000000001C511 31.9000000000001 515 31.7000000000001 517.1 31.7000000000001C528.9 31.7000000000001 535.5 36.7000000000001 539.5 49.6000000000001L542 57.2000000000001L497 182H524.8L556.0999999999999 80.8L587.9 182H615L568.3 50.8zM406.2 93.7C406.2 83.3 415.3 76.5 429.3999999999999 76.5C447.3999999999999 76.5 461.0999999999999 87.9 461.0999999999999 103.9V113.6L431.4999999999999 111.8C414.7999999999999 110.8 406.1999999999999 104.4999999999999 406.1999999999999 93.6999999999999zM314.5999999999999 206.5H279.7999999999999V138.4H314.5999999999999C332.3999999999999 138.4 346.7999999999999 152.8 346.7999999999999 170.6V174.3C346.7999999999999 192 332.3999999999999 206.5 314.5999999999999 206.5zM314.5999999999999 206.5H279.7999999999999V138.4H314.5999999999999C332.3999999999999 138.4 346.7999999999999 152.8 346.7999999999999 170.6V174.3C346.7999999999999 192 332.3999999999999 206.5 314.5999999999999 206.5zM314.5999999999999 206.5H279.7999999999999V138.4H314.5999999999999C332.3999999999999 138.4 346.7999999999999 152.8 346.7999999999999 170.6V174.3C346.7999999999999 192 332.3999999999999 206.5 314.5999999999999 206.5z" />
    <glyph glyph-name="apple-pay"
      unicode="&#xF113;"
      horiz-adv-x="640" d=" M609.2 191L573 75.9L537.4 191H505.8L557 49.1L554.2 40.5C549.6 25.9 542.1 20.2 528.7 20.2C526.3000000000001 20.2 521.7 20.5 519.8000000000001 20.7V-2.7C521.6 -3.1 531.4000000000001 -3.4 531.4000000000001 -3.4C560.9000000000001 -3.4 574.8000000000001 7.9 586.9000000000001 42L640 191H609.2zM436.8000000000001 192.9C404.7000000000001 192.9 380.9000000000001 174.5 380.0000000000001 149.3H407.3000000000001C409.6000000000001 161.3 420.7000000000001 169.2 435.9000000000001 169.2C454.4000000000001 169.2 464.8000000000001 160.6 464.8000000000001 144.7V133.9L427.0000000000001 131.6C391.9000000000001 129.5 372.9000000000001 115.1 372.9000000000001 90.1C373.0000000000001 64.9 392.6 48.1 420.7000000000001 48.1C439.7000000000001 48.1 457.3000000000001 57.7000000000001 465.3000000000001 73H465.9000000000001V49.6H493.9000000000001V146.6C493.9000000000001 174.7 471.4000000000001 192.9 436.8000000000001 192.9zM464.9000000000001 102.4C464.9000000000001 84.2 449.4000000000001 71.2 428.9000000000001 71.2C412.8000000000001 71.2 402.5000000000001 79 402.5000000000001 90.8C402.5000000000001 103.1 412.4000000000001 110.2 431.3000000000002 111.3L464.9000000000001 113.4V102.4zM304.5 244.5H228.2V49.6H258.5V116.1H304.5C338 116.1 365.2 143.3 365.2 176.8V183.8C365.2 217.3 338 244.5 304.5 244.5zM335 178.2C335 158 318.6 141.6 298.4 141.6H258.8V219H298.4C318.6 219 335 202.6 335 182.4V178.2zM143.7 146.9C143.4 173.7 165.6 186.4 166.6 187.2C154.1 205.8 134.6 207.8 127.8 208.3C110.4 209.3 95.5 198.4 87.3 198.4C78.9 198.4 66.3 207.8 52.5 207.5C34.6 207.2 18 197.1 8.9 181C-9.9 148.7 4 101 22.2 74.7C31.1 61.7 41.7 47.4 55.7 47.9C69 48.4 74.2 56.5 90.2 56.5C106.3 56.5 111 47.9 125 48.1C139.5 48.4 148.6 61.1 157.5 74.1C167.6 88.9 171.8 103.2000000000001 172 104C171.7 104.3 144 114.9 143.7 146.9zM116.9 225.5C124.3 234.6 129.2 246.9 128 259.3C117.3 258.8 104.2 252.3 96.7 243.2C89.8 235.4 83.9 222.6 85.4 210.6C97.4 209.6 109.4 216.6 116.9 225.5z" />
    <glyph glyph-name="apple"
      unicode="&#xF114;"
      horiz-adv-x="415.5" d=" M346.7 112.5C346.7 153.9 369.1 190.1 402.3 209.7C378.1 242.5 342.7 260 306.6 260C270.3 260 242.5000000000001 236.9 216.4 236.9C188.7000000000001 236.9 162.7000000000001 260 126.4 260C62.2 260 0 204.1 0 105.5S69.2 -127 133.5 -127C168 -127 182.3 -106.8 216.5 -106.8C253.5 -106.8 265 -127 299.6 -127C344.1 -127 390.9000000000001 -63.3 415.6 8.6C375.1 25.7 346.7000000000001 65.8 346.7000000000001 112.5zM285.1 302.4C304.8 325.9 312.5 355.6 308.6 384C280 382.9 252 370.3 232.3 346.8C212.6 323.3 205 293.6 208.8 265.2C237.4 266.3 265.4000000000001 278.9 285.1 302.4z" />
    <glyph glyph-name="backbone"
      unicode="&#xF115;"
      horiz-adv-x="410" d=" M410 384L203.7 261.3L203.4 261.1L0 384V-128L203.7 -11.1V-10.9L410 -128V384zM104.2 126C154.2 154.6 203.6 182.9 203.7 183L303.4 125.1L204.2 67.5L104.2 126zM339.8 181.7L270.8 221.9C292.3 234 316.1 247.6 338 260.6C338.5 260.8 339.3 215.3 339.8 181.7zM136.1 222.2L68.8 183.3V261.2L136.1 222.2zM68.9 -11.1S68.7 33.3 68.7 67.3L136.7 27.9999999999999L68.9 -11.1000000000001zM270.7000000000001 28.6L338.6 67.9V-11.1L270.7000000000001 28.6z" />
    <glyph glyph-name="behance-circle"
      unicode="&#xF116;"
      horiz-adv-x="512" d=" M211.2 121.6H164.8V78.4H208C214.4 78.4 227.2 80.0000000000001 227.2 99.2000000000001C227.2 121.6 211.2 121.6 211.2 121.6zM329.6 145.6C305.6 145.6 302.4000000000001 121.6 302.4000000000001 121.6H355.2000000000001C353.6 121.6 353.6 145.6 329.6 145.6zM222.4 164.8C222.4 180.8 211.2 180.8 211.2 180.8H164.8V145.6H208C216 145.6 222.4 147.2 222.4 164.8z M256 384C115.2 384 0 268.8 0 128S115.2 -128 256 -128S512 -12.8 512 128S396.8 384 256 384zM294.4 200H360V180.8H294.4V200zM260.8 97.6C260.8 49.6 209.6 51.2 209.6 51.2H128V209.6H211.2C236.8 209.6 256 195.2 256 168S232 137.6 232 137.6C264 136 260.8 97.6 260.8 97.6zM384 99.2000000000001H302.4C302.4 70.4 329.6 72.0000000000001 329.6 72.0000000000001C355.2 72.0000000000001 355.2 89.6000000000001 355.2 89.6000000000001H382.4C382.4 44.8000000000001 328 48.0000000000001 328 48.0000000000001C262.4 48.0000000000001 267.2 108.8000000000001 267.2 108.8000000000001S267.2 169.6000000000001 328 169.6000000000001C392 168.0000000000001 384 99.2000000000001 384 99.2000000000001z" />
    <glyph glyph-name="behance-square"
      unicode="&#xF117;"
      horiz-adv-x="512" d=" M211.2 180.8H164.8V145.6H208C216 145.6 222.4 147.2 222.4 164.8C222.4 180.8 211.2 180.8 211.2 180.8zM211.2 121.6H164.8V78.4H208C214.4 78.4 227.2 80.0000000000001 227.2 99.2000000000001C227.2 121.6 211.2 121.6 211.2 121.6zM329.6 145.6C305.6 145.6 302.4000000000001 121.6 302.4000000000001 121.6H355.2000000000001C353.6 121.6 353.6 145.6 329.6 145.6zM329.6 145.6C305.6 145.6 302.4000000000001 121.6 302.4000000000001 121.6H355.2000000000001C353.6 121.6 353.6 145.6 329.6 145.6zM211.2 121.6H164.8V78.4H208C214.4 78.4 227.2 80.0000000000001 227.2 99.2000000000001C227.2 121.6 211.2 121.6 211.2 121.6zM222.4 164.8C222.4 180.8 211.2 180.8 211.2 180.8H164.8V145.6H208C216 145.6 222.4 147.2 222.4 164.8zM441 384H71C31.8 384 0 352.2 0 313V-57C0 -96.2 31.8 -128 71 -128H441C480.2 -128 512 -96.2 512 -57V313C512 352.2 480.2 384 441 384zM294.4 200H360V180.8H294.4V200zM260.8 97.6C260.8 49.6 209.6 51.2 209.6 51.2H128V209.6H211.2C236.8 209.6 256 195.2 256 168S232 137.6 232 137.6C264 136 260.8 97.6 260.8 97.6zM384 99.2000000000001H302.4C302.4 70.4 329.6 72.0000000000001 329.6 72.0000000000001C355.2 72.0000000000001 355.2 89.6000000000001 355.2 89.6000000000001H382.4C382.4 44.8000000000001 328 48.0000000000001 328 48.0000000000001C262.4 48.0000000000001 267.2 108.8000000000001 267.2 108.8000000000001S267.2 169.6000000000001 328 169.6000000000001C392 168.0000000000001 384 99.2000000000001 384 99.2000000000001zM329.6 145.6000000000001C305.6 145.6000000000001 302.4 121.6 302.4 121.6H355.2C353.6 121.6 353.6 145.6 329.6 145.6zM211.2 121.6H164.8V78.4H208C214.4 78.4 227.2 80.0000000000001 227.2 99.2000000000001C227.2 121.6 211.2 121.6 211.2 121.6zM222.4 164.8C222.4 180.8 211.2 180.8 211.2 180.8H164.8V145.6H208C216 145.6 222.4 147.2 222.4 164.8zM211.2 180.8H164.8V145.6H208C216 145.6 222.4 147.2 222.4 164.8C222.4 180.8 211.2 180.8 211.2 180.8zM211.2 121.6H164.8V78.4H208C214.4 78.4 227.2 80.0000000000001 227.2 99.2000000000001C227.2 121.6 211.2 121.6 211.2 121.6zM211.2 121.6H164.8V78.4H208C214.4 78.4 227.2 80.0000000000001 227.2 99.2000000000001C227.2 121.6 211.2 121.6 211.2 121.6zM211.2 180.8H164.8V145.6H208C216 145.6 222.4 147.2 222.4 164.8C222.4 180.8 211.2 180.8 211.2 180.8z" />
    <glyph glyph-name="behance"
      unicode="&#xF118;"
      horiz-adv-x="576" d=" M232.9 140.9S286.9 144.6 286.9 210.9S241.9 308.5 186.1 308.5H0.7V-56.3H187.9S301.3 -60 301.3 52.4C299.5 48.7 304.8 140.9 232.9 140.9zM83.5 242.2H186.1S211.3 242.2 211.3 203.5S196.9 159.2 178.9 159.2H83.5V242.2zM182.5 6.3H83.5V104H187.9S225.7 104 225.7 54.3C223.9 11.9 196.9 6.3 182.5 6.3zM450.6 216.8C313.8 216.8 313.8 80 313.8 80S304.8 -56.8 450.6 -56.8C450.6 -56.8 573 -64 573 38.6H510S511.8 0.8 452.4 0.8C452.4 0.8 389.4 -2.8 389.4 63.8H574.8C574.8 62 596.4 216.8 450.6 216.8zM506.4 108.7000000000001H389.5S396.7 164.5000000000001 452.5 164.5000000000001S506.4 108.7000000000001 506.4 108.7000000000001zM375 287H522.6V251H375z" />
    <glyph glyph-name="bitbucket"
      unicode="&#xF119;"
      horiz-adv-x="500" d=" M15.9 352.1C6.1 352.1 -1.3 343.3 0.3 333.7L68.2 -78.6C69.9 -89 78.9 -96.7 89.5 -96.8H415.9C423.8 -96.9 430.6 -91.2 431.9 -83.4L499.9 333.5C501.5 343.1 494 351.8999999999999 484.3 351.8999999999999L15.9 352.1zM302.9 54.3H198.1L170 201.3H328.1L302.9 54.3z" />
    <glyph glyph-name="blackberry"
      unicode="&#xF11A;"
      horiz-adv-x="558.3" d=" M131.4 343.2H54.4L30.8 235.4L119 236.1C147.3 237.7 181.9 264.7 181.9 292.6S159.7 343.2 131.4 343.2zM330.3 343.2H253.3L229.7 235.4L317.9000000000001 236.1C346.2000000000001 237.7 380.8 264.7 380.8 292.6S358.6 343.2 330.3 343.2zM507.7 246.5H430.7000000000001L407.1 138.7L495.3 139.4C523.6 141 558.2 168 558.2 195.9S535.9000000000001 246.5 507.7 246.5zM476.9 78H399.9L376.3 -29.8L464.4999999999999 -29.1C492.8 -27.5 527.4 -0.5 527.4 27.4S505.1 78 476.9 78zM299.5 180.9H222.5L198.9 73.1L287.1 73.8C315.4000000000001 75.4 350 102.4 350 130.3C350.1 158.3 327.8 180.9 299.5 180.9zM100.6 180.9H23.6L0 73.2L88.2 73.9C116.5 75.5 151.1 102.5 151.1 130.4C151.2 158.3 128.9 180.9 100.6 180.9zM271.8 18.7H194.8L171.2 -89.1L259.4 -88.4C287.7 -86.7999999999999 322.3 -59.7999999999999 322.3 -31.9S300.1 18.7 271.8 18.7z" />
    <glyph glyph-name="blogger-circle"
      unicode="&#xF11B;"
      horiz-adv-x="512" d=" M256 384C115.2 384 0 268.8 0 128S115.2 -128 256 -128S512 -12.8 512 128S396.8 384 256 384zM362.8 83.6C362.8 45.8 332.5 15.5 294.7000000000001 15.5H216.6000000000001C179.0000000000001 15.5 148.5000000000001 46 148.5000000000001 83.6V163.1C148.5000000000001 200.2 178.8000000000001 231.2 215.9000000000001 230.5000000000001H263.7000000000001C283.9000000000001 230.5000000000001 306.8000000000001 213.7 316.3000000000001 193.4C319.0000000000001 188 319.7000000000001 184.6 322.3000000000001 170.5C323.6000000000001 162.4 323.6000000000001 155.7 327.7000000000001 152.3000000000001C333.1 147.6000000000001 352.6 149.6000000000001 357.4000000000001 147.6000000000001C362.8 145.6000000000001 363.5000000000001 140.2000000000001 363.4000000000001 138.8000000000001L362.8 83.6zM294.1 97H217.2C210.4 97 204.4 91.6 204.4 84.2C204.4 77.4 209.8 71.4 217.2 71.4H294.1C300.8 71.4 306.9000000000001 77.4 306.9000000000001 84.2S301.5000000000001 97 294.1 97zM217.3 149.5H255C261.8 149.5 267.8 154.9 267.8 162.3C267.8 169.1 262.4000000000001 175.1 255 175.1H217.2C209.8 175.1 204.4 169.7 204.4 162.3C204.5 155.5 209.8 149.5 217.3 149.5z" />
    <glyph glyph-name="blogger-square"
      unicode="&#xF11C;"
      horiz-adv-x="512" d=" M441 384H71C31.8 384 0 352.2 0 313V-57C0 -96.2 31.8 -128 71 -128H441C480.2 -128 512 -96.2 512 -57V313C512 352.2 480.2 384 441 384zM382.7 79.6C382.7 34.9 346 -0.2 301.3 -0.2H208.7C165.6 -0.2 128.9 36.5 128.9 79.6V173.8C128.9 218.5 165.6 255.2 210.3 255.2H266.2C290.2 255.2 317.3 234.4 328.5 210.5C331.7 204.1 333.3 199.3 336.5 183.3C338.1 173.7 338.1 165.7 342.9 160.9C349.3 154.5 371.6 157.7 378 156.1C384.4 152.9 384.4 144.9 384.4 144.9L382.7 79.6zM301.2 97.2000000000001H210.2C202.2 97.2000000000001 194.2 90.8000000000001 194.2 81.2000000000001C194.2 73.2000000000001 200.6 65.2000000000001 210.2 65.2000000000001H301.2C309.2 65.2000000000001 317.2 71.6 317.2 81.2000000000001S310.8 97.2000000000001 301.2 97.2000000000001zM210.2 157.8000000000001H254.9C262.9 157.8000000000001 270.9 164.2000000000001 270.9 173.8000000000001C270.9 181.8000000000001 264.5 189.8000000000001 254.9 189.8000000000001H210.2C202.2 189.8000000000001 194.2 183.4 194.2 173.8000000000001C195.8 165.8000000000001 202.2 157.8000000000001 210.2 157.8000000000001z" />
    <glyph glyph-name="blogger"
      unicode="&#xF11D;"
      horiz-adv-x="512" d=" M497.5 186.6C486.3 191.4 439.7 186.6 426.9 197.8C417.3 205.8 417.3 221.9 414.1 241.1C407.7 274.8 406.1 282.8 399.7 295.7C377.1 343.9 322.6 384 274.4 384H160.5C72.2 385.6 0 311.8 0 223.5V34.1C0 -55.4 72.6 -128 162.2 -128H348.2C438.1 -128 510.3 -55.8 510.3 34.1L511.9 165.7C512 169 510.3 181.8 497.5 186.6zM163.7 252H253.6C271.3 252 284.1 237.6 284.1 221.5C284.1 203.8 269.7000000000001 191 253.6 191H163.7C146 191 133.2 205.4 133.2 221.5C133.2 239.2 146 252 163.7 252zM346.7 5H163.7C146 5 133.2 19.4 133.2 35.5C133.2 53.2 147.6 66 163.7 66H346.7C364.4 66 377.2 51.6 377.2 35.5S362.7 5 346.7 5z" />
    <glyph glyph-name="bootstrap"
      unicode="&#xF11E;"
      horiz-adv-x="512" d=" M334.1 64.1C334.1 15.6 288.7000000000001 16.8 283.9000000000001 16.8H191.4V110.2000000000001H283.9000000000001C332.5000000000001 110.1 334.1 73.6 334.1 64.1zM276.7000000000001 147.7C277.5000000000001 147.7 320.6 146.6 320.6 189.2C320.6 206.9 316.6 230.2 276.7000000000001 230.2H191.3000000000001V147.7H276.7000000000001zM512 298.6V-42.8C511.9 -89.9 473.7 -127.9 426.6 -128.1999999999999H85.4C38.3 -128 0.2 -89.8 0 -42.7V298.6C0.1 345.7 38.3 383.9 85.4 384H426.8C473.6999999999999 383.9 511.9 345.7 511.9999999999999 298.6zM386.3 57.3C386.3 82 378.8 123.9 330.3 134.3V135.1C356.5 146.3 372.9000000000001 167.4 372.9000000000001 198.6C372.9000000000001 206.6 375.2000000000001 272.7000000000001 284.2000000000001 272.7000000000001H139.1V-25.9C285.6 -25.9 299 -27.8 326.1 -19.4C342.3 -14.4 386.3 1.2 386.3 57.3z" />
    <glyph glyph-name="buffer-circle"
      unicode="&#xF11F;"
      horiz-adv-x="512" d=" M256 384C115.2 384 0 268.8 0 128S115.2 -128 256 -128S512 -12.8 512 128S396.8 384 256 384zM377.6 54.4L260.8 1.6C257.6 -1e-13 252.8 -1e-13 249.6 1.6L132.8 54.4C129.6 56 129.6 60.8 132.8 62.4L156.8 73.6C160 75.2 164.8 75.2 168 73.6L249.6 36.8C252.8 35.1999999999999 257.6 35.1999999999999 260.8 36.8L342.4 73.6C345.6 75.2 350.4 75.2 353.6 73.6L377.6 62.4C380.8 60.8 380.8 56 377.6 54.4zM377.6 123.2L260.8 70.4C257.6 68.8 252.8 68.8 249.6 70.4L132.8 123.2C129.6 124.8 129.6 129.6 132.8 131.2L156.8 142.4C160 144 164.8 144 168 142.4L249.6 105.6C252.8 103.9999999999999 257.6 103.9999999999999 260.8 105.6L342.4 142.4C345.6 144 350.4 144 353.6 142.4L377.6 131.2C380.8 129.6 380.8 124.8 377.6 123.2zM377.6 192L260.8 139.2C257.6 137.6 252.8 137.6 249.6 139.2L134.4 192C131.2 193.6 131.2 198.4 134.4 200L249.6 254.4C254.4000000000001 256 257.6 256 262.4000000000001 254.4L377.6 200C380.8 198.4 380.8 193.6 377.6 192z" />
    <glyph glyph-name="buffer-square"
      unicode="&#xF120;"
      horiz-adv-x="512" d=" M441 384H71C31.8 384 0 352.2 0 313V-57C0 -96.2 31.8 -128 71 -128H441C480.2 -128 512 -96.2 512 -57V313C512 352.2 480.2 384 441 384zM377.6 54.4L260.8 1.6C257.6 -1e-13 252.8 -1e-13 249.6 1.6L132.8 54.4C129.6 56 129.6 60.8 132.8 62.4L156.8 73.6C160 75.2 164.8 75.2 168 73.6L249.6 36.8C252.8 35.1999999999999 257.6 35.1999999999999 260.8 36.8L342.4 73.6C345.6 75.2 350.4 75.2 353.6 73.6L377.6 62.4C380.8 60.8 380.8 56 377.6 54.4zM377.6 123.2L260.8 70.4C257.6 68.8 252.8 68.8 249.6 70.4L132.8 123.2C129.6 124.8 129.6 129.6 132.8 131.2L156.8 142.4C160 144 164.8 144 168 142.4L249.6 105.6C252.8 103.9999999999999 257.6 103.9999999999999 260.8 105.6L342.4 142.4C345.6 144 350.4 144 353.6 142.4L377.6 131.2C380.8 129.6 380.8 124.8 377.6 123.2zM377.6 192L260.8 139.2C257.6 137.6 252.8 137.6 249.6 139.2L134.4 192C131.2 193.6 131.2 198.4 134.4 200L249.6 254.4C254.4000000000001 256 257.6 256 262.4000000000001 254.4L377.6 200C380.8 198.4 380.8 193.6 377.6 192z" />
    <glyph glyph-name="buffer"
      unicode="&#xF121;"
      horiz-adv-x="499" d=" M4.8 257.1L238.2 149.8C244.6 146.6 252.7 146.6 260.7000000000001 149.8L494.1 257.1C500.5 260.3 500.5 269.9 494.1 273.1L262.4 380.4C254.4 385.2 244.7 385.2 236.6 380.4L4.8 273.1C-1.6 269.9 -1.6 260.3 4.8 257.1z M493.2 133.8L445.2 156.2C438.8 159.4 430.8 159.4 422.8 156.2L259.4 81C253 77.8 245 77.8 237 81L75.3 156.2C68.9 159.4 60.9 159.4 52.9 156.2L4.9 133.8C-1.5 130.6 -1.5 121 4.9 117.8L237 10.5C243.4 7.3 251.4 7.3 259.4 10.5L491.6 117.8C501.2 121 501.2 130.6 493.2 133.8z M493.2 -2.3L445.2 20.1C438.8 23.3 430.8 23.3 422.8 20.1L259.5 -55.2C253.1 -58.4 245.1 -58.4 237.1 -55.2L75.3 20.1C68.9 23.3 60.9 23.3 52.9 20.1L4.9 -2.3C-1.5 -5.4999999999999 -1.5 -15.1 4.9 -18.3L237 -125.6C243.4 -128.8000000000001 251.4 -128.8000000000001 259.4 -125.6L491.6 -18.3C501.2 -16.7 501.2 -5.5 493.2 -2.3z" />
    <glyph glyph-name="buysellads-circle"
      unicode="&#xF122;"
      horiz-adv-x="512" d=" M256 384C115.2 384 0 268.8 0 128S115.2 -128 256 -128S512 -12.8 512 128S396.8 384 256 384zM313.6 8L256 209.6L219.2 83.2H291.2L201.6 8H128L203.2 248H307.2L382.4 8H313.6z" />
    <glyph glyph-name="buysellads-square"
      unicode="&#xF123;"
      horiz-adv-x="512" d=" M441 384H71C31.8 384 0 352.2 0 313V-57C0 -96.2 31.8 -128 71 -128H441C480.2 -128 512 -96.2 512 -57V313C512 352.2 480.2 384 441 384zM313.6 8L256 209.6L219.2 83.2H291.2L201.6 8H128L203.2 248H307.2L382.4 8H313.6z" />
    <glyph glyph-name="buysellads"
      unicode="&#xF124;"
      horiz-adv-x="511.5" d=" M152.3 369H360.8L513 -112H370.3L258.2 292.1L184.4 38.7H328.7L149.1 -112H0z" />
    <glyph glyph-name="cakephp"
      unicode="&#xF125;"
      horiz-adv-x="512" d=" M1.14 75.288V-4.415C1.14 -48.407 115.428 -84.076 256.532 -84.076V-4.415C115.428 -4.415 1.14 31.34 1.14 75.246V75.288zM456.246 25.636L256.531 75.288V-4.415L456.246 -54.066C491.065 -40.447 511.922 -23.207 511.922 -4.415V75.288C511.922 56.517 491.0649999999999 39.278 456.246 25.636zM256.531 154.928V75.288C115.491 75.288 1.139 110.979 1.139 154.97V234.802C1.139 278.7290000000001 115.427 314.463 256.531 314.463C397.528 314.463 511.922 278.7080000000001 511.922 234.781V154.97C511.922 136.178 491.066 119.002 456.246 105.297L256.5310000000001 154.992V154.928z" />
    <glyph glyph-name="chrome"
      unicode="&#xF126;"
      horiz-adv-x="496" d=" M131.5 166.5L55.1 283.9C102.7 343.1 174.1 375.7 247.1 376C289.4 376.3 332.6 365.5 371.9 342.8C415.3 317.6 448.3 281.4 469.3 239.8L264 250.6C205.9 254 150.6 221.3 131.5 166.5zM164.4 128C164.4 81.8 201.8 44.4 248 44.4S331.6 81.8 331.6 128S294.2000000000001 211.6 248.0000000000001 211.6S164.4 174.3 164.4 128zM479.3 217.2L339.6 210C377.5 165.7 378.1 101.8 346.2000000000001 52.8L234.1 -119.6C280.6 -122.1 328.5 -111.9 371.9 -86.7C479.3 -24.7 522.8 105.3 479.3 217.1999999999999zM133.7 80.4L40.4 263.9C14.9 224.9 0 178.1 0 128C0 4 90.8 -98.7 209.5 -116.9L273.2 7.9C215.6 -2.9 160 28.7 133.7 80.4z" />
    <glyph glyph-name="cisco"
      unicode="&#xF127;"
      horiz-adv-x="550" d=" M17.3 192.8C7.8 192.8 0 185.1 0 175.6V150.8C0.1 146.2 2 141.9 5.4 138.7C8.6 135.6 12.8 133.9 17.3 133.9H17.8C27 134.2 34.4 141.6 34.6 150.8V175.6C34.6 185.1 26.8 192.8 17.3 192.8zM351.4 220C348.1 223.2 343.7 224.8 339.1 224.8C329.9 224.6 322.5 217.2 322.3 208V151.1C322.2 146.5 324 142.2 327.3 138.9C330.5 135.6 334.9 133.8 339.5 133.8C349 133.8 356.8 141.6 356.8 151.1V208C356.6 212.6 354.7 216.9 351.4 220zM468.3 225.1C458.8 225.1 451 217.3 451 207.8V150.9C451.1 141.4 458.8 133.7 468.3 133.7C477.9 133.7 485.7 141.5 485.7 151V207.9C485.6 217.3 477.8 225.1 468.3 225.1zM81.7 225.1C72.2 225.1 64.4 217.3 64.4 207.8V151C64.4 141.4 72.2 133.7 81.7 133.7S99 141.4 99 150.9V207.8C99 217.3 91.2 225.1 81.7 225.1zM210.6 225.1C201.1 225.1 193.3 217.3 193.3 207.8V151C193.3 141.5 201.1 133.7 210.5 133.7H210.7C215.2 133.7 219.5 135.5 222.8 138.7C226.1 142 227.9 146.3 227.9 151V207.8C227.9 217.3 220.0999999999999 225.1 210.5999999999999 225.1zM146.2 269.2C136.7 269.2 128.9 261.4 128.9 251.9V127.3C129 122.7 130.9 118.4 134.3 115.2C137.5 112.1 141.7 110.4 146.2 110.4H146.7C155.9 110.6 163.3 118 163.5 127.2V251.9C163.4 261.5 155.7 269.2 146.2 269.2zM532.7 192.9C523.2 192.9 515.4000000000001 185.1 515.4000000000001 175.6V151C515.4000000000001 141.5 523.2 133.7 532.7 133.7S550 141.5 550 151V175.6C550 185.1 542.2 192.9 532.7 192.9zM403.9 269.3C394.4 269.3 386.6 261.5 386.6 252V127.7C386.3 118.2 393.6 110.3 403 109.9H403.8999999999999C408.2 109.9 412.2999999999999 111.5 415.5 114.4C418.8999999999999 117.5 420.8999999999999 121.8 421.1 126.4V252C421.2 261.5 413.4 269.3 403.9 269.3zM275.1 192.8C265.6 192.8 257.8 185.1 257.8 175.6V151C257.8 141.5 265.6 133.7 275.1 133.7S292.4000000000001 141.5 292.4000000000001 151V175.6C292.2000000000001 185.1 284.5000000000001 192.8 275.1 192.8zM155.5 -19.6H179.6V76H155.5V-19.6zM301.2 28.2C301.2 -2.6 325 -21.3 352.1 -21.3C362.8 -21.3 371.1 -18.8 374.1 -17.9V7.8C373 7.1999999999999 365.2 2.6999999999999 353.8 2.6999999999999C337.8 2.6999999999999 327.4 13.9999999999999 327.4 28.1999999999999C327.4 42.8999999999999 338.2 53.6999999999999 353.8 53.6999999999999C365.4 53.6999999999999 373.1 49.0999999999999 374.1 48.5999999999999V74.2999999999999C371.8 74.9999999999999 363.5 77.7999999999999 352.1 77.7999999999999C322.7 77.6999999999999 301.2 56.6999999999999 301.2 28.1999999999999zM255.1 38.1L248.5 40.2C244.5 41.4 237.5 43.5 237.5 49.3C237.5 53.9 242.8 57.1 252.4 57.1C260.7 57.1 270.9 54.3 271.3 54.2V74.6C270.6 74.8 259.5 77.7000000000001 247.8 77.7000000000001C225.6 77.7000000000001 212.2 65.7000000000001 212.2 47.8000000000001C212.2 32.0000000000001 223.4 24.1000000000001 236.8 19.8000000000001C238.3 19.3000000000001 240.5 18.6000000000001 242 18.2C248 16.3000000000001 252.8 13.5000000000001 252.8 8.7C252.8 3.3000000000001 247.3 -0.1999999999999 235.3 -0.1999999999999C224.8 -0.1999999999999 214.6 2.8000000000001 212.5 3.4000000000001V-18.5999999999999C213.7 -18.7999999999999 225.7 -21.1999999999999 238.5 -21.1999999999999C257 -21.1999999999999 278.1 -13.1999999999999 278.1 10.9000000000001C277.8 22.4000000000001 270.7000000000001 33.1000000000001 255.1 38.1000000000001zM450 77.7C420.6 77.7 399.5 55.5 399.5 28.2C399.5 0.8 420.6 -21.3 450 -21.3S500.5 0.8 500.5 28.2C500.5 55.5 479.4 77.7 450 77.7zM450 3C435.7 3 425.1 14.3 425.1 28.1S435.7000000000001 53.2 450 53.2S474.9 41.9 474.9 28.1S464.3 3 450 3zM49.5 28.2C49.5 -2.6 73.3 -21.3 100.4 -21.3C111.2 -21.3 119.4 -18.8 122.4 -17.9V7.8C121.4 7.1999999999999 113.5 2.6999999999999 102.1 2.6999999999999C86 2.6999999999999 75.6 13.9999999999999 75.6 28.1999999999999C75.6 42.8999999999999 86.4 53.6999999999999 102.1 53.6999999999999C113.7 53.6999999999999 121.4 49.0999999999999 122.4 48.5999999999999V74.2999999999999C120.1 74.9999999999999 111.8 77.7999999999999 100.4 77.7999999999999C71.1 77.6999999999999 49.5 56.6999999999999 49.5 28.1999999999999z" />
    <glyph glyph-name="codeigniter"
      unicode="&#xF128;"
      horiz-adv-x="415.826" d=" M132.924 -127.808C100.07 -113.301 77.756 -82.027 74.833 -46.229A115.184 115.184 0 0 1 127.1 44.352C122.023 31.979 123.26 17.8990000000001 130.3 6.592C138.321 -4.6079999999999 152.103 -9.984 165.607 -7.189C184.85 -1.771 196.114 18.198 190.695 37.4400000000001C188.775 44.181 184.935 50.2830000000001 179.687 54.8910000000001A80.193 80.193 0 0 1 150.887 128.1920000000001A75.153 75.153 0 0 1 174.268 166.2720000000001C165.6279999999999 143.2320000000001 189.991 120.4910000000001 206.353 109.3120000000001A849.548 849.548 0 0 1 290.065 52.0100000000001C319.2919999999999 28.9710000000001 335.228 -7.0839999999999 332.732 -43.9899999999999C326.162 -83.2429999999999 298.386 -115.6699999999999 260.519 -127.8299999999999C336.253 -110.9759999999999 414.333 -50.8159999999999 415.826 34.5170000000001C414.334 102.7840000000001 373.586 164.0530000000001 311.293 191.9570000000001H308.52A25.307 25.307 0 0 1 310.44 181.3750000000001A38.871 38.871 0 0 0 310.44 188.4160000000001A33.862 33.862 0 0 1 310.44 180.0960000000001C305.703 160.6820000000001 286.119 148.7360000000001 266.664 153.4710000000001C258.899 155.3910000000001 251.944 159.7650000000001 246.952 166.0590000000001C221.992 198.0590000000001 246.952 234.4750000000001 251.134 269.6740000000001A131.65 131.65 0 0 0 196.649 384.021C214.91 353.579 190.59 313.621 172.905 290.88C155.198 268.139 129.598 251.2 108.735 231.36C86.25 210.453 65.641 187.456 47.146 162.88C7.164 114.026 -8.537 49.601 4.476 -12.159C22.311 -71.68 71.783 -116.395 132.796 -128H133.137L132.924 -127.808z" />
    <glyph glyph-name="codepen-circle"
      unicode="&#xF129;"
      horiz-adv-x="512" d=" M256 384C115.2 384 0 268.8 0 128S115.2 -128 256 -128S512 -12.8 512 128S396.8 384 256 384zM400.4 79C400.4 71.8 397 65 391.2 61L263.9 -28.4C256.9 -33.3 247.5 -33.4 240.4 -28.6L113.7 56.3000000000001C107.7 60.3000000000001 104.1 67.2000000000001 104.1 74.6000000000001V163.8000000000001C104.1 171.1000000000001 107.7 178.0000000000001 113.7 182.0000000000001L240.9 267.5000000000001C247.8 272.2000000000001 256.8 272.2000000000001 263.8 267.7000000000001L390.5 185.8000000000001C396.7 181.8000000000001 400.3999999999999 174.9000000000001 400.3999999999999 167.3000000000001V79zM375 99.5V143.5L343.3 121.5L375 99.5zM366.1 168.5L265.5 237.4V176.1L321.3 137.8L366.1 168.5zM265.5 66.9V5.7L366.1 74.6L321.4000000000001 105.3L265.5000000000001 66.9zM252.3 153.1L206.7 121.5L252.3 89.8999999999999L297.9000000000001 121.5L252.3000000000001 153.0999999999999zM139.5 74.6999999999999L239.1 5.8H240.1V67.1L184.2 105.4L139.5 74.7zM239.5 176.0999999999999V237.3999999999999L138.9 168.4999999999999L183.6 137.7999999999999L239.5000000000001 176.0999999999999zM129.4 143.5V99.4999999999999L161.1 121.5L129.4 143.5z" />
    <glyph glyph-name="codepen-square"
      unicode="&#xF12A;"
      horiz-adv-x="512" d=" M441 384H71C31.8 384 0 352.2 0 313V-57C0 -96.2 31.8 -128 71 -128H441C480.2 -128 512 -96.2 512 -57V313C512 352.2 480.2 384 441 384zM404.4 74C404.4 66.8 401 60 395.2 56L267.9 -33.4C260.9 -38.3 251.5 -38.4 244.4 -33.6L117.7 51.3000000000001C111.7 55.3000000000001 108.1 62.2000000000001 108.1 69.6000000000001V158.8000000000001C108.1 166.1000000000001 111.7 173.0000000000001 117.7 177.0000000000001L244.9 262.5000000000001C251.8 267.2000000000001 260.8 267.2000000000001 267.8 262.7000000000001L394.5 180.8000000000001C400.7 176.8000000000001 404.3999999999999 169.9000000000001 404.3999999999999 162.3000000000001V74zM379 94.5V138.5L347.3 116.5L379 94.5zM269.5 61.9V0.7L370.1 69.6L325.4000000000001 100.3L269.5000000000001 61.9zM370.1 163.5L269.5 232.4V171.1L325.3 132.8L370.1 163.5zM256.3 148.1L210.7 116.5L256.3 84.8999999999999L301.9000000000001 116.5L256.3 148.0999999999999zM143.5 69.6999999999999L243.1 0.8H244.1V62.1L188.2 100.4L143.5 69.7zM243.5 171.0999999999999V232.3999999999999L142.9 163.4999999999999L187.6 132.7999999999999L243.5000000000001 171.0999999999999zM133.4 138.5V94.4999999999999L165.1 116.5L133.4 138.5z" />
    <glyph glyph-name="codepen"
      unicode="&#xF12B;"
      horiz-adv-x="501" d=" M270 378.6C258.2 386.2 243 386.1 231.3 378.2L16.3 233.7C6.1 226.9 0 215.3 0 202.9V52.2C0 39.7 6.1 28.1 16.3 21.3000000000001L230.5 -122.1999999999999C242.6 -130.2999999999999 258.4 -130.0999999999999 270.3 -121.7999999999999L485.4 29.3000000000001C495.2 36.2 501 47.6000000000001 501 59.8000000000001V209C501 221.7 494.7 233.5 484.2 240.2L270 378.6zM273 327.4L443 210.9L367.4 159.1L273 223.8V327.4zM229 327.4V223.8L134.5 159.1L59 210.9L229 327.4zM43 168.8L96.5 131.6L43 94.4V168.8zM228.4 -64L60 52.5L135.6 104.3L230.1 39.6V-64H228.4zM250.7 78.2L173.6 131.6L250.7 185L327.8 131.6L250.7 78.2zM273 -64.2V39.3L367.5 104L443.1 52.2L273 -64.2zM458 94.4L404.5 131.6L458 168.8V94.4z" />
    <glyph glyph-name="coffeescript"
      unicode="&#xF12C;"
      horiz-adv-x="512.128" d=" M200.002 277.7920000000001C248.146 282.42 262.1430000000001 316.203 318.5560000000001 321.756C346.3390000000001 324.07 363.9430000000001 318.053 365.8510000000001 307.41C367.5490000000001 297.46 353.7620000000001 290.75 337.0080000000001 289.362C313.8900000000001 286.817 304.3470000000001 295.841 302.439 304.403C285.2600000000001 302.32 282.5030000000001 294.453 283.351 288.9C285.26 278.256 306.044 267.612 341.673 271.315C381.969 274.786 395.544 292.14 392.151 309.4940000000001C387.9100000000001 332.17 356.943 351.144 301.379 345.359C230.1190000000001 338.418 230.543 302.3210000000001 181.976 297.925C162.04 295.842 151.012 300.933 149.103 309.4940000000001C147.831 318.055 157.587 322.221 169.039 323.146C179.643 324.303 192.58 322.221 198.73 318.5180000000001C203.184 321.063 204.669 323.6090000000001 204.244 326.617C202.123 334.716 187.4900000000001 338.1860000000001 169.038 336.798C132.983 333.327 132.983 315.741 134.256 307.874C137.862 287.742 165.6450000000001 274.3210000000001 200.002 277.7920000000001zM442.203 188.938C397.665 177.6 340.826 170.195 272.324 170.195C202.336 170.195 145.285 178.063 100.96 188.707C61.088 199.813 39.88 212.077 32.458 224.804C36.275 196.343 42.85 168.808 51.333 142.66C41.153 135.719 32.034 127.158 23.762 115.589C8.614 95.451 0.899 69.874 2.128 43.858C3.67 19.853 14.65 -2.252 32.244 -16.766C50.696 -32.5 70.631 -37.128 93.324 -32.5C102.019 -30.881 111.775 -26.021 120.683 -22.782C102.019 -22.782 86.325 -16.303 70.631 -2.65C53.41 10.4 41.958 30.694 39.03 53.346C34.789 75.096 39.03 95.227 50.271 113.043C52.815 116.516 55.573 119.522 58.542 122.299C64.905 105.408 71.691 88.748 79.327 73.244C96.506 44.784 113.684 20.025 130.864 -6.816C138.287 -22.55 143.164 -38.054 146.557 -53.557C158.056 -70.873 174.816 -83.174 193.852 -88.265C218.242 -97.52 243.6920000000001 -101.685 269.7770000000001 -100.066H272.5340000000001C299.0770000000001 -101.333 325.6060000000001 -97.253 350.7930000000001 -88.033C369.0590000000001 -82.205 385.1210000000001 -70.116 396.6040000000001 -53.557H398.0870000000001C400.8440000000001 -38.054 405.5100000000001 -22.55 412.2980000000001 -6.816C429.2650000000001 20.2550000000001 446.6540000000001 44.7840000000001 463.621 73.244C487.011 120.477 503.064 171.613 511.128 224.573C502.008 210.689 480.5890000000001 198.4260000000001 442.2030000000001 188.9380000000001z" />
    <glyph glyph-name="css3"
      unicode="&#xF12D;"
      horiz-adv-x="493" d=" M487 352L423 -16L199.7 -96L7 -16L26.6 78.8H108.6L100.6 38.2L217 -6.2L351.1 38.2L369.9000000000001 135.3H36.5L52.5 217.3H386.2L396.7 270H63.3L79.6 352H487z" />
    <glyph glyph-name="deviantart-circle"
      unicode="&#xF12E;"
      horiz-adv-x="512" d=" M256 384C115.2 384 0 268.8 0 128S115.2 -128 256 -128S512 -12.8 512 128S396.8 384 256 384zM336 209.6L288 118.4L291.2 115.2H336V51.2H256L251.2 48L228.8 6.4L224 0H176V48L222.4 137.6L219.2 140.8H176V204.8H256L260.8 208L283.2 249.6L289.6 256H336V209.6z" />
    <glyph glyph-name="deviantart-square"
      unicode="&#xF12F;"
      horiz-adv-x="512" d=" M441 384H71C31.8 384 0 352.2 0 313V-57C0 -96.2 31.8 -128 71 -128H441C480.2 -128 512 -96.2 512 -57V313C512 352.2 480.2 384 441 384zM336 209.6L288 118.4L291.2 115.2H336V51.2H256L251.2 48L228.8 6.4L224 0H176V48L222.4 137.6L219.2 140.8H176V204.8H256L260.8 208L283.2 249.6L289.6 256H336V209.6z" />
    <glyph glyph-name="deviantart"
      unicode="&#xF130;"
      horiz-adv-x="320" d=" M320 384H225.6L212.8 371.2L169.6 286.4L160 281.6H0V153.6H89.6L94.4 145.6L0 -33.6V-128H94.4L105.6 -116.8L150.4 -32L160 -25.6H320V102.4H232L224 110.4L320 289.6z" />
    <glyph glyph-name="docker"
      unicode="&#xF131;"
      horiz-adv-x="580" d=" M485.9 115.1C455.3 -7 317.5 -67.7 204.8 -67.7C106.5 -67.7 21.3 -24.5 2.6 132.7C74 132.7 413.7000000000001 135.8 413.7000000000001 135.8S434.9000000000001 143.2 432.9000000000001 146.4C408.3 186.7 436.0000000000001 244.4 451.7 249.3C473.2 256 497.2 194.8 503.6 189.8C508.5 186 589 191.5 579.2 165.6C556.3000000000001 105.7000000000001 503.1 118.3 485.9 115.1z M53.5 200.8H112.3V150.2H53.5zM328.1 200.8H386.9000000000001V150.2H328.1zM121.9 200.8H180.7V150.2H121.9zM190.2 200.8H249V150.2H190.2zM259.7 200.8H318.5V150.2H259.7zM121.9 259.8H180.7V209.2H121.9zM190.2 259.8H249V209.2H190.2zM259.7 259.8H318.5V209.2H259.7zM259.7 318.8H318.5V268.2H259.7z" />
    </font>
</defs>
</svg>
